<svg xmlns="http://www.w3.org/2000/svg" viewBox="0 0 300.000 324.000" width="460" fill="currentColor" preserveAspectRatio="xMidYMid meet"><circle cx="142.500" cy="22.500" r="1.170"/><circle cx="142.500" cy="25.500" r="1.170"/><circle cx="142.500" cy="28.500" r="1.170"/><circle cx="142.500" cy="31.500" r="1.170"/><circle cx="139.500" cy="34.500" r="1.170"/><circle cx="142.500" cy="34.500" r="1.170"/><circle cx="145.500" cy="25.500" r="1.170"/><circle cx="145.500" cy="28.500" r="1.170"/><circle cx="145.500" cy="31.500" r="1.170"/><circle cx="145.500" cy="34.500" r="1.170"/><circle cx="136.500" cy="43.500" r="1.170"/><circle cx="136.500" cy="46.500" r="1.170"/><circle cx="139.500" cy="37.500" r="1.170"/><circle cx="139.500" cy="40.500" r="1.170"/><circle cx="139.500" cy="43.500" r="1.170"/><circle cx="142.500" cy="37.500" r="1.170"/><circle cx="139.500" cy="46.500" r="1.170"/><circle cx="145.500" cy="37.500" r="1.170"/><circle cx="145.500" cy="40.500" r="1.170"/><circle cx="148.500" cy="37.500" r="1.170"/><circle cx="148.500" cy="40.500" r="1.170"/><circle cx="148.500" cy="43.500" r="1.170"/><circle cx="148.500" cy="46.500" r="1.170"/><circle cx="151.500" cy="43.500" r="1.170"/><circle cx="151.500" cy="46.500" r="1.170"/><circle cx="124.500" cy="58.500" r="1.170"/><circle cx="127.500" cy="55.500" r="1.170"/><circle cx="130.500" cy="52.500" r="1.170"/><circle cx="130.500" cy="55.500" r="1.170"/><circle cx="127.500" cy="58.500" r="1.170"/><circle cx="130.500" cy="58.500" r="1.170"/><circle cx="133.500" cy="49.500" r="1.170"/><circle cx="133.500" cy="52.500" r="1.170"/><circle cx="133.500" cy="55.500" r="1.170"/><circle cx="136.500" cy="49.500" r="1.170"/><circle cx="151.500" cy="49.500" r="1.170"/><circle cx="151.500" cy="52.500" r="1.170"/><circle cx="154.500" cy="49.500" r="1.170"/><circle cx="154.500" cy="52.500" r="1.170"/><circle cx="154.500" cy="55.500" r="1.170"/><circle cx="157.500" cy="52.500" r="1.170"/><circle cx="157.500" cy="55.500" r="1.170"/><circle cx="157.500" cy="58.500" r="1.170"/><circle cx="160.500" cy="58.500" r="1.170"/><circle cx="163.500" cy="58.500" r="1.170"/><circle cx="115.500" cy="67.500" r="1.170"/><circle cx="118.500" cy="64.500" r="1.170"/><circle cx="118.500" cy="67.500" r="1.170"/><circle cx="115.500" cy="70.500" r="1.170"/><circle cx="118.500" cy="70.500" r="1.170"/><circle cx="121.500" cy="61.500" r="1.170"/><circle cx="121.500" cy="64.500" r="1.170"/><circle cx="121.500" cy="67.500" r="1.170"/><circle cx="124.500" cy="61.500" r="1.170"/><circle cx="124.500" cy="64.500" r="1.170"/><circle cx="127.500" cy="61.500" r="1.170"/><circle cx="160.500" cy="61.500" r="1.170"/><circle cx="163.500" cy="61.500" r="1.170"/><circle cx="163.500" cy="64.500" r="1.170"/><circle cx="166.500" cy="64.500" r="1.170"/><circle cx="166.500" cy="67.500" r="1.170"/><circle cx="169.500" cy="64.500" r="1.170"/><circle cx="169.500" cy="67.500" r="1.170"/><circle cx="169.500" cy="70.500" r="1.170"/><circle cx="172.500" cy="70.500" r="1.170"/><circle cx="106.500" cy="82.500" r="1.170"/><circle cx="109.500" cy="76.500" r="1.170"/><circle cx="109.500" cy="79.500" r="1.170"/><circle cx="112.500" cy="73.500" r="1.170"/><circle cx="112.500" cy="76.500" r="1.170"/><circle cx="112.500" cy="79.500" r="1.170"/><circle cx="109.500" cy="82.500" r="1.170"/><circle cx="115.500" cy="73.500" r="1.170"/><circle cx="142.500" cy="82.500" r="1.170"/><circle cx="172.500" cy="73.500" r="1.170"/><circle cx="172.500" cy="76.500" r="1.170"/><circle cx="175.500" cy="73.500" r="1.170"/><circle cx="175.500" cy="76.500" r="1.170"/><circle cx="175.500" cy="79.500" r="1.170"/><circle cx="178.500" cy="76.500" r="1.170"/><circle cx="178.500" cy="79.500" r="1.170"/><circle cx="178.500" cy="82.500" r="1.170"/><circle cx="181.500" cy="82.500" r="1.170"/><circle cx="106.500" cy="85.500" r="1.170"/><circle cx="106.500" cy="88.500" r="1.170"/><circle cx="106.500" cy="91.500" r="1.170"/><circle cx="106.500" cy="94.500" r="1.170"/><circle cx="109.500" cy="85.500" r="1.170"/><circle cx="109.500" cy="88.500" r="1.170"/><circle cx="109.500" cy="91.500" r="1.170"/><circle cx="109.500" cy="94.500" r="1.170"/><circle cx="142.500" cy="85.500" r="1.170"/><circle cx="142.500" cy="88.500" r="1.170"/><circle cx="142.500" cy="91.500" r="1.170"/><circle cx="142.500" cy="94.500" r="1.170"/><circle cx="145.500" cy="85.500" r="1.170"/><circle cx="145.500" cy="88.500" r="1.170"/><circle cx="145.500" cy="91.500" r="1.170"/><circle cx="145.500" cy="94.500" r="1.170"/><circle cx="178.500" cy="85.500" r="1.170"/><circle cx="178.500" cy="88.500" r="1.170"/><circle cx="178.500" cy="91.500" r="1.170"/><circle cx="178.500" cy="94.500" r="1.170"/><circle cx="181.500" cy="85.500" r="1.170"/><circle cx="181.500" cy="88.500" r="1.170"/><circle cx="181.500" cy="91.500" r="1.170"/><circle cx="181.500" cy="94.500" r="1.170"/><circle cx="82.500" cy="106.500" r="1.170"/><circle cx="85.500" cy="106.500" r="1.170"/><circle cx="88.500" cy="106.500" r="1.170"/><circle cx="91.500" cy="106.500" r="1.170"/><circle cx="94.500" cy="106.500" r="1.170"/><circle cx="97.500" cy="106.500" r="1.170"/><circle cx="100.500" cy="106.500" r="1.170"/><circle cx="106.500" cy="97.500" r="1.170"/><circle cx="106.500" cy="100.500" r="1.170"/><circle cx="109.500" cy="97.500" r="1.170"/><circle cx="109.500" cy="100.500" r="1.170"/><circle cx="109.500" cy="103.500" r="1.170"/><circle cx="109.500" cy="106.500" r="1.170"/><circle cx="112.500" cy="106.500" r="1.170"/><circle cx="130.500" cy="103.500" r="1.170"/><circle cx="127.500" cy="106.500" r="1.170"/><circle cx="130.500" cy="106.500" r="1.170"/><circle cx="133.500" cy="100.500" r="1.170"/><circle cx="133.500" cy="103.500" r="1.170"/><circle cx="133.500" cy="106.500" r="1.170"/><circle cx="139.500" cy="97.500" r="1.170"/><circle cx="139.500" cy="100.500" r="1.170"/><circle cx="142.500" cy="97.500" r="1.170"/><circle cx="142.500" cy="100.500" r="1.170"/><circle cx="142.500" cy="103.500" r="1.170"/><circle cx="139.500" cy="106.500" r="1.170"/><circle cx="142.500" cy="106.500" r="1.170"/><circle cx="145.500" cy="97.500" r="1.170"/><circle cx="145.500" cy="100.500" r="1.170"/><circle cx="145.500" cy="103.500" r="1.170"/><circle cx="145.500" cy="106.500" r="1.170"/><circle cx="151.500" cy="100.500" r="1.170"/><circle cx="151.500" cy="103.500" r="1.170"/><circle cx="154.500" cy="103.500" r="1.170"/><circle cx="151.500" cy="106.500" r="1.170"/><circle cx="154.500" cy="106.500" r="1.170"/><circle cx="157.500" cy="103.500" r="1.170"/><circle cx="157.500" cy="106.500" r="1.170"/><circle cx="160.500" cy="106.500" r="1.170"/><circle cx="175.500" cy="103.500" r="1.170"/><circle cx="178.500" cy="97.500" r="1.170"/><circle cx="178.500" cy="100.500" r="1.170"/><circle cx="178.500" cy="103.500" r="1.170"/><circle cx="175.500" cy="106.500" r="1.170"/><circle cx="178.500" cy="106.500" r="1.170"/><circle cx="181.500" cy="97.500" r="1.170"/><circle cx="181.500" cy="100.500" r="1.170"/><circle cx="187.500" cy="106.500" r="1.170"/><circle cx="190.500" cy="106.500" r="1.170"/><circle cx="193.500" cy="106.500" r="1.170"/><circle cx="196.500" cy="106.500" r="1.170"/><circle cx="199.500" cy="106.500" r="1.170"/><circle cx="202.500" cy="106.500" r="1.170"/><circle cx="205.500" cy="106.500" r="1.170"/><circle cx="70.500" cy="115.500" r="1.170"/><circle cx="67.500" cy="118.500" r="1.170"/><circle cx="70.500" cy="118.500" r="1.170"/><circle cx="73.500" cy="112.500" r="1.170"/><circle cx="73.500" cy="115.500" r="1.170"/><circle cx="76.500" cy="109.500" r="1.170"/><circle cx="76.500" cy="112.500" r="1.170"/><circle cx="76.500" cy="115.500" r="1.170"/><circle cx="79.500" cy="109.500" r="1.170"/><circle cx="79.500" cy="112.500" r="1.170"/><circle cx="82.500" cy="109.500" r="1.170"/><circle cx="85.500" cy="109.500" r="1.170"/><circle cx="88.500" cy="109.500" r="1.170"/><circle cx="94.500" cy="109.500" r="1.170"/><circle cx="97.500" cy="109.500" r="1.170"/><circle cx="100.500" cy="109.500" r="1.170"/><circle cx="103.500" cy="109.500" r="1.170"/><circle cx="106.500" cy="109.500" r="1.170"/><circle cx="106.500" cy="112.500" r="1.170"/><circle cx="109.500" cy="112.500" r="1.170"/><circle cx="109.500" cy="115.500" r="1.170"/><circle cx="112.500" cy="109.500" r="1.170"/><circle cx="112.500" cy="112.500" r="1.170"/><circle cx="112.500" cy="115.500" r="1.170"/><circle cx="112.500" cy="118.500" r="1.170"/><circle cx="115.500" cy="109.500" r="1.170"/><circle cx="115.500" cy="112.500" r="1.170"/><circle cx="115.500" cy="115.500" r="1.170"/><circle cx="118.500" cy="115.500" r="1.170"/><circle cx="115.500" cy="118.500" r="1.170"/><circle cx="118.500" cy="118.500" r="1.170"/><circle cx="124.500" cy="109.500" r="1.170"/><circle cx="124.500" cy="112.500" r="1.170"/><circle cx="124.500" cy="115.500" r="1.170"/><circle cx="121.500" cy="118.500" r="1.170"/><circle cx="124.500" cy="118.500" r="1.170"/><circle cx="127.500" cy="109.500" r="1.170"/><circle cx="127.500" cy="112.500" r="1.170"/><circle cx="127.500" cy="115.500" r="1.170"/><circle cx="130.500" cy="109.500" r="1.170"/><circle cx="130.500" cy="112.500" r="1.170"/><circle cx="130.500" cy="115.500" r="1.170"/><circle cx="127.500" cy="118.500" r="1.170"/><circle cx="133.500" cy="109.500" r="1.170"/><circle cx="136.500" cy="109.500" r="1.170"/><circle cx="142.500" cy="109.500" r="1.170"/><circle cx="142.500" cy="112.500" r="1.170"/><circle cx="142.500" cy="115.500" r="1.170"/><circle cx="145.500" cy="109.500" r="1.170"/><circle cx="151.500" cy="109.500" r="1.170"/><circle cx="154.500" cy="109.500" r="1.170"/><circle cx="154.500" cy="112.500" r="1.170"/><circle cx="157.500" cy="109.500" r="1.170"/><circle cx="157.500" cy="112.500" r="1.170"/><circle cx="157.500" cy="115.500" r="1.170"/><circle cx="160.500" cy="109.500" r="1.170"/><circle cx="160.500" cy="112.500" r="1.170"/><circle cx="160.500" cy="115.500" r="1.170"/><circle cx="157.500" cy="118.500" r="1.170"/><circle cx="160.500" cy="118.500" r="1.170"/><circle cx="163.500" cy="112.500" r="1.170"/><circle cx="163.500" cy="115.500" r="1.170"/><circle cx="163.500" cy="118.500" r="1.170"/><circle cx="166.500" cy="118.500" r="1.170"/><circle cx="169.500" cy="115.500" r="1.170"/><circle cx="172.500" cy="109.500" r="1.170"/><circle cx="172.500" cy="112.500" r="1.170"/><circle cx="172.500" cy="115.500" r="1.170"/><circle cx="169.500" cy="118.500" r="1.170"/><circle cx="172.500" cy="118.500" r="1.170"/><circle cx="175.500" cy="109.500" r="1.170"/><circle cx="175.500" cy="112.500" r="1.170"/><circle cx="175.500" cy="115.500" r="1.170"/><circle cx="178.500" cy="112.500" r="1.170"/><circle cx="178.500" cy="115.500" r="1.170"/><circle cx="181.500" cy="109.500" r="1.170"/><circle cx="181.500" cy="112.500" r="1.170"/><circle cx="184.500" cy="109.500" r="1.170"/><circle cx="187.500" cy="109.500" r="1.170"/><circle cx="190.500" cy="109.500" r="1.170"/><circle cx="193.500" cy="109.500" r="1.170"/><circle cx="199.500" cy="109.500" r="1.170"/><circle cx="202.500" cy="109.500" r="1.170"/><circle cx="205.500" cy="109.500" r="1.170"/><circle cx="208.500" cy="109.500" r="1.170"/><circle cx="208.500" cy="112.500" r="1.170"/><circle cx="211.500" cy="109.500" r="1.170"/><circle cx="211.500" cy="112.500" r="1.170"/><circle cx="211.500" cy="115.500" r="1.170"/><circle cx="214.500" cy="112.500" r="1.170"/><circle cx="214.500" cy="115.500" r="1.170"/><circle cx="214.500" cy="118.500" r="1.170"/><circle cx="217.500" cy="115.500" r="1.170"/><circle cx="217.500" cy="118.500" r="1.170"/><circle cx="220.500" cy="118.500" r="1.170"/><circle cx="58.500" cy="127.500" r="1.170"/><circle cx="55.500" cy="130.500" r="1.170"/><circle cx="58.500" cy="130.500" r="1.170"/><circle cx="61.500" cy="124.500" r="1.170"/><circle cx="61.500" cy="127.500" r="1.170"/><circle cx="64.500" cy="121.500" r="1.170"/><circle cx="64.500" cy="124.500" r="1.170"/><circle cx="64.500" cy="127.500" r="1.170"/><circle cx="61.500" cy="130.500" r="1.170"/><circle cx="67.500" cy="121.500" r="1.170"/><circle cx="67.500" cy="124.500" r="1.170"/><circle cx="70.500" cy="121.500" r="1.170"/><circle cx="106.500" cy="127.500" r="1.170"/><circle cx="103.500" cy="130.500" r="1.170"/><circle cx="106.500" cy="130.500" r="1.170"/><circle cx="109.500" cy="127.500" r="1.170"/><circle cx="112.500" cy="124.500" r="1.170"/><circle cx="112.500" cy="127.500" r="1.170"/><circle cx="109.500" cy="130.500" r="1.170"/><circle cx="112.500" cy="130.500" r="1.170"/><circle cx="115.500" cy="124.500" r="1.170"/><circle cx="115.500" cy="127.500" r="1.170"/><circle cx="118.500" cy="121.500" r="1.170"/><circle cx="118.500" cy="124.500" r="1.170"/><circle cx="118.500" cy="127.500" r="1.170"/><circle cx="115.500" cy="130.500" r="1.170"/><circle cx="121.500" cy="121.500" r="1.170"/><circle cx="121.500" cy="124.500" r="1.170"/><circle cx="121.500" cy="127.500" r="1.170"/><circle cx="124.500" cy="121.500" r="1.170"/><circle cx="124.500" cy="124.500" r="1.170"/><circle cx="124.500" cy="127.500" r="1.170"/><circle cx="121.500" cy="130.500" r="1.170"/><circle cx="124.500" cy="130.500" r="1.170"/><circle cx="127.500" cy="121.500" r="1.170"/><circle cx="127.500" cy="124.500" r="1.170"/><circle cx="127.500" cy="127.500" r="1.170"/><circle cx="130.500" cy="124.500" r="1.170"/><circle cx="130.500" cy="127.500" r="1.170"/><circle cx="127.500" cy="130.500" r="1.170"/><circle cx="130.500" cy="130.500" r="1.170"/><circle cx="136.500" cy="127.500" r="1.170"/><circle cx="133.500" cy="130.500" r="1.170"/><circle cx="136.500" cy="130.500" r="1.170"/><circle cx="139.500" cy="121.500" r="1.170"/><circle cx="139.500" cy="124.500" r="1.170"/><circle cx="139.500" cy="127.500" r="1.170"/><circle cx="145.500" cy="121.500" r="1.170"/><circle cx="148.500" cy="124.500" r="1.170"/><circle cx="148.500" cy="127.500" r="1.170"/><circle cx="148.500" cy="130.500" r="1.170"/><circle cx="151.500" cy="127.500" r="1.170"/><circle cx="151.500" cy="130.500" r="1.170"/><circle cx="154.500" cy="130.500" r="1.170"/><circle cx="157.500" cy="124.500" r="1.170"/><circle cx="157.500" cy="127.500" r="1.170"/><circle cx="160.500" cy="121.500" r="1.170"/><circle cx="160.500" cy="124.500" r="1.170"/><circle cx="160.500" cy="127.500" r="1.170"/><circle cx="157.500" cy="130.500" r="1.170"/><circle cx="160.500" cy="130.500" r="1.170"/><circle cx="163.500" cy="121.500" r="1.170"/><circle cx="163.500" cy="124.500" r="1.170"/><circle cx="163.500" cy="127.500" r="1.170"/><circle cx="166.500" cy="121.500" r="1.170"/><circle cx="166.500" cy="124.500" r="1.170"/><circle cx="166.500" cy="127.500" r="1.170"/><circle cx="163.500" cy="130.500" r="1.170"/><circle cx="169.500" cy="121.500" r="1.170"/><circle cx="169.500" cy="124.500" r="1.170"/><circle cx="169.500" cy="127.500" r="1.170"/><circle cx="172.500" cy="124.500" r="1.170"/><circle cx="172.500" cy="127.500" r="1.170"/><circle cx="169.500" cy="130.500" r="1.170"/><circle cx="172.500" cy="130.500" r="1.170"/><circle cx="175.500" cy="124.500" r="1.170"/><circle cx="175.500" cy="127.500" r="1.170"/><circle cx="178.500" cy="127.500" r="1.170"/><circle cx="175.500" cy="130.500" r="1.170"/><circle cx="178.500" cy="130.500" r="1.170"/><circle cx="181.500" cy="130.500" r="1.170"/><circle cx="184.500" cy="130.500" r="1.170"/><circle cx="217.500" cy="121.500" r="1.170"/><circle cx="220.500" cy="121.500" r="1.170"/><circle cx="220.500" cy="124.500" r="1.170"/><circle cx="223.500" cy="121.500" r="1.170"/><circle cx="223.500" cy="124.500" r="1.170"/><circle cx="223.500" cy="127.500" r="1.170"/><circle cx="226.500" cy="124.500" r="1.170"/><circle cx="226.500" cy="127.500" r="1.170"/><circle cx="226.500" cy="130.500" r="1.170"/><circle cx="229.500" cy="127.500" r="1.170"/><circle cx="229.500" cy="130.500" r="1.170"/><circle cx="232.500" cy="130.500" r="1.170"/><circle cx="34.500" cy="142.500" r="1.170"/><circle cx="37.500" cy="142.500" r="1.170"/><circle cx="40.500" cy="142.500" r="1.170"/><circle cx="43.500" cy="139.500" r="1.170"/><circle cx="46.500" cy="139.500" r="1.170"/><circle cx="43.500" cy="142.500" r="1.170"/><circle cx="46.500" cy="142.500" r="1.170"/><circle cx="49.500" cy="136.500" r="1.170"/><circle cx="49.500" cy="139.500" r="1.170"/><circle cx="52.500" cy="133.500" r="1.170"/><circle cx="52.500" cy="136.500" r="1.170"/><circle cx="55.500" cy="133.500" r="1.170"/><circle cx="55.500" cy="136.500" r="1.170"/><circle cx="58.500" cy="133.500" r="1.170"/><circle cx="91.500" cy="142.500" r="1.170"/><circle cx="94.500" cy="142.500" r="1.170"/><circle cx="100.500" cy="133.500" r="1.170"/><circle cx="100.500" cy="136.500" r="1.170"/><circle cx="97.500" cy="142.500" r="1.170"/><circle cx="100.500" cy="142.500" r="1.170"/><circle cx="103.500" cy="133.500" r="1.170"/><circle cx="103.500" cy="136.500" r="1.170"/><circle cx="106.500" cy="133.500" r="1.170"/><circle cx="106.500" cy="136.500" r="1.170"/><circle cx="103.500" cy="142.500" r="1.170"/><circle cx="109.500" cy="133.500" r="1.170"/><circle cx="109.500" cy="136.500" r="1.170"/><circle cx="124.500" cy="139.500" r="1.170"/><circle cx="121.500" cy="142.500" r="1.170"/><circle cx="124.500" cy="142.500" r="1.170"/><circle cx="127.500" cy="136.500" r="1.170"/><circle cx="127.500" cy="139.500" r="1.170"/><circle cx="130.500" cy="133.500" r="1.170"/><circle cx="130.500" cy="136.500" r="1.170"/><circle cx="130.500" cy="139.500" r="1.170"/><circle cx="127.500" cy="142.500" r="1.170"/><circle cx="133.500" cy="133.500" r="1.170"/><circle cx="133.500" cy="136.500" r="1.170"/><circle cx="133.500" cy="139.500" r="1.170"/><circle cx="136.500" cy="133.500" r="1.170"/><circle cx="136.500" cy="136.500" r="1.170"/><circle cx="136.500" cy="139.500" r="1.170"/><circle cx="139.500" cy="136.500" r="1.170"/><circle cx="139.500" cy="139.500" r="1.170"/><circle cx="139.500" cy="142.500" r="1.170"/><circle cx="142.500" cy="142.500" r="1.170"/><circle cx="145.500" cy="139.500" r="1.170"/><circle cx="148.500" cy="133.500" r="1.170"/><circle cx="148.500" cy="136.500" r="1.170"/><circle cx="148.500" cy="139.500" r="1.170"/><circle cx="145.500" cy="142.500" r="1.170"/><circle cx="148.500" cy="142.500" r="1.170"/><circle cx="151.500" cy="133.500" r="1.170"/><circle cx="151.500" cy="136.500" r="1.170"/><circle cx="151.500" cy="139.500" r="1.170"/><circle cx="154.500" cy="133.500" r="1.170"/><circle cx="154.500" cy="136.500" r="1.170"/><circle cx="157.500" cy="133.500" r="1.170"/><circle cx="157.500" cy="139.500" r="1.170"/><circle cx="160.500" cy="136.500" r="1.170"/><circle cx="160.500" cy="139.500" r="1.170"/><circle cx="160.500" cy="142.500" r="1.170"/><circle cx="163.500" cy="139.500" r="1.170"/><circle cx="163.500" cy="142.500" r="1.170"/><circle cx="166.500" cy="142.500" r="1.170"/><circle cx="175.500" cy="133.500" r="1.170"/><circle cx="178.500" cy="133.500" r="1.170"/><circle cx="178.500" cy="136.500" r="1.170"/><circle cx="181.500" cy="133.500" r="1.170"/><circle cx="181.500" cy="136.500" r="1.170"/><circle cx="181.500" cy="139.500" r="1.170"/><circle cx="184.500" cy="133.500" r="1.170"/><circle cx="184.500" cy="136.500" r="1.170"/><circle cx="181.500" cy="142.500" r="1.170"/><circle cx="184.500" cy="142.500" r="1.170"/><circle cx="187.500" cy="136.500" r="1.170"/><circle cx="187.500" cy="142.500" r="1.170"/><circle cx="190.500" cy="142.500" r="1.170"/><circle cx="193.500" cy="142.500" r="1.170"/><circle cx="196.500" cy="142.500" r="1.170"/><circle cx="229.500" cy="133.500" r="1.170"/><circle cx="232.500" cy="133.500" r="1.170"/><circle cx="232.500" cy="136.500" r="1.170"/><circle cx="235.500" cy="133.500" r="1.170"/><circle cx="235.500" cy="136.500" r="1.170"/><circle cx="238.500" cy="136.500" r="1.170"/><circle cx="238.500" cy="139.500" r="1.170"/><circle cx="241.500" cy="139.500" r="1.170"/><circle cx="244.500" cy="139.500" r="1.170"/><circle cx="241.500" cy="142.500" r="1.170"/><circle cx="244.500" cy="142.500" r="1.170"/><circle cx="247.500" cy="142.500" r="1.170"/><circle cx="250.500" cy="142.500" r="1.170"/><circle cx="253.500" cy="142.500" r="1.170"/><circle cx="25.500" cy="145.500" r="1.170"/><circle cx="28.500" cy="145.500" r="1.170"/><circle cx="31.500" cy="145.500" r="1.170"/><circle cx="34.500" cy="145.500" r="1.170"/><circle cx="34.500" cy="148.500" r="1.170"/><circle cx="37.500" cy="145.500" r="1.170"/><circle cx="37.500" cy="148.500" r="1.170"/><circle cx="40.500" cy="145.500" r="1.170"/><circle cx="40.500" cy="148.500" r="1.170"/><circle cx="40.500" cy="151.500" r="1.170"/><circle cx="43.500" cy="148.500" r="1.170"/><circle cx="43.500" cy="151.500" r="1.170"/><circle cx="46.500" cy="151.500" r="1.170"/><circle cx="46.500" cy="154.500" r="1.170"/><circle cx="49.500" cy="151.500" r="1.170"/><circle cx="49.500" cy="154.500" r="1.170"/><circle cx="52.500" cy="154.500" r="1.170"/><circle cx="55.500" cy="154.500" r="1.170"/><circle cx="79.500" cy="145.500" r="1.170"/><circle cx="82.500" cy="145.500" r="1.170"/><circle cx="85.500" cy="145.500" r="1.170"/><circle cx="88.500" cy="145.500" r="1.170"/><circle cx="88.500" cy="148.500" r="1.170"/><circle cx="91.500" cy="145.500" r="1.170"/><circle cx="91.500" cy="148.500" r="1.170"/><circle cx="94.500" cy="145.500" r="1.170"/><circle cx="94.500" cy="148.500" r="1.170"/><circle cx="97.500" cy="145.500" r="1.170"/><circle cx="97.500" cy="148.500" r="1.170"/><circle cx="100.500" cy="145.500" r="1.170"/><circle cx="100.500" cy="148.500" r="1.170"/><circle cx="100.500" cy="154.500" r="1.170"/><circle cx="103.500" cy="145.500" r="1.170"/><circle cx="103.500" cy="148.500" r="1.170"/><circle cx="106.500" cy="145.500" r="1.170"/><circle cx="106.500" cy="148.500" r="1.170"/><circle cx="103.500" cy="154.500" r="1.170"/><circle cx="106.500" cy="154.500" r="1.170"/><circle cx="109.500" cy="145.500" r="1.170"/><circle cx="112.500" cy="145.500" r="1.170"/><circle cx="118.500" cy="148.500" r="1.170"/><circle cx="121.500" cy="148.500" r="1.170"/><circle cx="121.500" cy="151.500" r="1.170"/><circle cx="124.500" cy="148.500" r="1.170"/><circle cx="124.500" cy="151.500" r="1.170"/><circle cx="124.500" cy="154.500" r="1.170"/><circle cx="127.500" cy="151.500" r="1.170"/><circle cx="127.500" cy="154.500" r="1.170"/><circle cx="130.500" cy="154.500" r="1.170"/><circle cx="133.500" cy="151.500" r="1.170"/><circle cx="136.500" cy="151.500" r="1.170"/><circle cx="133.500" cy="154.500" r="1.170"/><circle cx="136.500" cy="154.500" r="1.170"/><circle cx="139.500" cy="145.500" r="1.170"/><circle cx="139.500" cy="148.500" r="1.170"/><circle cx="139.500" cy="151.500" r="1.170"/><circle cx="142.500" cy="145.500" r="1.170"/><circle cx="142.500" cy="148.500" r="1.170"/><circle cx="139.500" cy="154.500" r="1.170"/><circle cx="145.500" cy="145.500" r="1.170"/><circle cx="145.500" cy="148.500" r="1.170"/><circle cx="145.500" cy="151.500" r="1.170"/><circle cx="148.500" cy="148.500" r="1.170"/><circle cx="148.500" cy="151.500" r="1.170"/><circle cx="148.500" cy="154.500" r="1.170"/><circle cx="151.500" cy="151.500" r="1.170"/><circle cx="154.500" cy="151.500" r="1.170"/><circle cx="151.500" cy="154.500" r="1.170"/><circle cx="154.500" cy="154.500" r="1.170"/><circle cx="157.500" cy="151.500" r="1.170"/><circle cx="160.500" cy="151.500" r="1.170"/><circle cx="157.500" cy="154.500" r="1.170"/><circle cx="160.500" cy="154.500" r="1.170"/><circle cx="163.500" cy="148.500" r="1.170"/><circle cx="163.500" cy="151.500" r="1.170"/><circle cx="166.500" cy="148.500" r="1.170"/><circle cx="172.500" cy="145.500" r="1.170"/><circle cx="175.500" cy="145.500" r="1.170"/><circle cx="178.500" cy="145.500" r="1.170"/><circle cx="178.500" cy="148.500" r="1.170"/><circle cx="178.500" cy="154.500" r="1.170"/><circle cx="181.500" cy="145.500" r="1.170"/><circle cx="181.500" cy="148.500" r="1.170"/><circle cx="184.500" cy="145.500" r="1.170"/><circle cx="184.500" cy="148.500" r="1.170"/><circle cx="181.500" cy="154.500" r="1.170"/><circle cx="184.500" cy="154.500" r="1.170"/><circle cx="187.500" cy="145.500" r="1.170"/><circle cx="187.500" cy="148.500" r="1.170"/><circle cx="190.500" cy="145.500" r="1.170"/><circle cx="190.500" cy="148.500" r="1.170"/><circle cx="187.500" cy="154.500" r="1.170"/><circle cx="193.500" cy="145.500" r="1.170"/><circle cx="193.500" cy="148.500" r="1.170"/><circle cx="196.500" cy="145.500" r="1.170"/><circle cx="196.500" cy="148.500" r="1.170"/><circle cx="199.500" cy="145.500" r="1.170"/><circle cx="199.500" cy="148.500" r="1.170"/><circle cx="202.500" cy="145.500" r="1.170"/><circle cx="205.500" cy="145.500" r="1.170"/><circle cx="208.500" cy="145.500" r="1.170"/><circle cx="232.500" cy="154.500" r="1.170"/><circle cx="238.500" cy="151.500" r="1.170"/><circle cx="235.500" cy="154.500" r="1.170"/><circle cx="238.500" cy="154.500" r="1.170"/><circle cx="241.500" cy="148.500" r="1.170"/><circle cx="241.500" cy="151.500" r="1.170"/><circle cx="244.500" cy="148.500" r="1.170"/><circle cx="244.500" cy="151.500" r="1.170"/><circle cx="247.500" cy="145.500" r="1.170"/><circle cx="247.500" cy="148.500" r="1.170"/><circle cx="250.500" cy="145.500" r="1.170"/><circle cx="250.500" cy="148.500" r="1.170"/><circle cx="253.500" cy="145.500" r="1.170"/><circle cx="253.500" cy="148.500" r="1.170"/><circle cx="256.500" cy="145.500" r="1.170"/><circle cx="259.500" cy="145.500" r="1.170"/><circle cx="262.500" cy="145.500" r="1.170"/><circle cx="52.500" cy="157.500" r="1.170"/><circle cx="55.500" cy="157.500" r="1.170"/><circle cx="55.500" cy="160.500" r="1.170"/><circle cx="58.500" cy="157.500" r="1.170"/><circle cx="58.500" cy="160.500" r="1.170"/><circle cx="58.500" cy="163.500" r="1.170"/><circle cx="61.500" cy="160.500" r="1.170"/><circle cx="61.500" cy="163.500" r="1.170"/><circle cx="64.500" cy="163.500" r="1.170"/><circle cx="61.500" cy="166.500" r="1.170"/><circle cx="64.500" cy="166.500" r="1.170"/><circle cx="67.500" cy="166.500" r="1.170"/><circle cx="100.500" cy="157.500" r="1.170"/><circle cx="103.500" cy="157.500" r="1.170"/><circle cx="103.500" cy="160.500" r="1.170"/><circle cx="106.500" cy="157.500" r="1.170"/><circle cx="106.500" cy="160.500" r="1.170"/><circle cx="106.500" cy="163.500" r="1.170"/><circle cx="109.500" cy="157.500" r="1.170"/><circle cx="109.500" cy="160.500" r="1.170"/><circle cx="109.500" cy="163.500" r="1.170"/><circle cx="112.500" cy="160.500" r="1.170"/><circle cx="112.500" cy="163.500" r="1.170"/><circle cx="109.500" cy="166.500" r="1.170"/><circle cx="112.500" cy="166.500" r="1.170"/><circle cx="115.500" cy="160.500" r="1.170"/><circle cx="115.500" cy="163.500" r="1.170"/><circle cx="118.500" cy="160.500" r="1.170"/><circle cx="118.500" cy="163.500" r="1.170"/><circle cx="115.500" cy="166.500" r="1.170"/><circle cx="118.500" cy="166.500" r="1.170"/><circle cx="121.500" cy="160.500" r="1.170"/><circle cx="121.500" cy="163.500" r="1.170"/><circle cx="124.500" cy="160.500" r="1.170"/><circle cx="124.500" cy="163.500" r="1.170"/><circle cx="121.500" cy="166.500" r="1.170"/><circle cx="124.500" cy="166.500" r="1.170"/><circle cx="127.500" cy="157.500" r="1.170"/><circle cx="127.500" cy="160.500" r="1.170"/><circle cx="127.500" cy="163.500" r="1.170"/><circle cx="130.500" cy="157.500" r="1.170"/><circle cx="130.500" cy="160.500" r="1.170"/><circle cx="130.500" cy="163.500" r="1.170"/><circle cx="127.500" cy="166.500" r="1.170"/><circle cx="130.500" cy="166.500" r="1.170"/><circle cx="133.500" cy="157.500" r="1.170"/><circle cx="133.500" cy="160.500" r="1.170"/><circle cx="136.500" cy="157.500" r="1.170"/><circle cx="136.500" cy="160.500" r="1.170"/><circle cx="136.500" cy="163.500" r="1.170"/><circle cx="136.500" cy="166.500" r="1.170"/><circle cx="139.500" cy="166.500" r="1.170"/><circle cx="148.500" cy="166.500" r="1.170"/><circle cx="151.500" cy="157.500" r="1.170"/><circle cx="151.500" cy="163.500" r="1.170"/><circle cx="154.500" cy="157.500" r="1.170"/><circle cx="154.500" cy="160.500" r="1.170"/><circle cx="151.500" cy="166.500" r="1.170"/><circle cx="157.500" cy="157.500" r="1.170"/><circle cx="157.500" cy="160.500" r="1.170"/><circle cx="157.500" cy="163.500" r="1.170"/><circle cx="160.500" cy="160.500" r="1.170"/><circle cx="160.500" cy="163.500" r="1.170"/><circle cx="157.500" cy="166.500" r="1.170"/><circle cx="160.500" cy="166.500" r="1.170"/><circle cx="163.500" cy="160.500" r="1.170"/><circle cx="163.500" cy="163.500" r="1.170"/><circle cx="166.500" cy="160.500" r="1.170"/><circle cx="166.500" cy="163.500" r="1.170"/><circle cx="163.500" cy="166.500" r="1.170"/><circle cx="166.500" cy="166.500" r="1.170"/><circle cx="169.500" cy="163.500" r="1.170"/><circle cx="172.500" cy="160.500" r="1.170"/><circle cx="172.500" cy="163.500" r="1.170"/><circle cx="169.500" cy="166.500" r="1.170"/><circle cx="172.500" cy="166.500" r="1.170"/><circle cx="175.500" cy="157.500" r="1.170"/><circle cx="175.500" cy="160.500" r="1.170"/><circle cx="175.500" cy="163.500" r="1.170"/><circle cx="178.500" cy="157.500" r="1.170"/><circle cx="178.500" cy="160.500" r="1.170"/><circle cx="178.500" cy="163.500" r="1.170"/><circle cx="175.500" cy="166.500" r="1.170"/><circle cx="181.500" cy="157.500" r="1.170"/><circle cx="181.500" cy="160.500" r="1.170"/><circle cx="181.500" cy="163.500" r="1.170"/><circle cx="184.500" cy="157.500" r="1.170"/><circle cx="184.500" cy="160.500" r="1.170"/><circle cx="187.500" cy="157.500" r="1.170"/><circle cx="220.500" cy="166.500" r="1.170"/><circle cx="223.500" cy="163.500" r="1.170"/><circle cx="226.500" cy="160.500" r="1.170"/><circle cx="226.500" cy="163.500" r="1.170"/><circle cx="223.500" cy="166.500" r="1.170"/><circle cx="226.500" cy="166.500" r="1.170"/><circle cx="229.500" cy="157.500" r="1.170"/><circle cx="229.500" cy="160.500" r="1.170"/><circle cx="229.500" cy="163.500" r="1.170"/><circle cx="232.500" cy="157.500" r="1.170"/><circle cx="232.500" cy="160.500" r="1.170"/><circle cx="235.500" cy="157.500" r="1.170"/><circle cx="64.500" cy="169.500" r="1.170"/><circle cx="67.500" cy="169.500" r="1.170"/><circle cx="67.500" cy="172.500" r="1.170"/><circle cx="70.500" cy="172.500" r="1.170"/><circle cx="70.500" cy="175.500" r="1.170"/><circle cx="73.500" cy="172.500" r="1.170"/><circle cx="73.500" cy="175.500" r="1.170"/><circle cx="76.500" cy="175.500" r="1.170"/><circle cx="73.500" cy="178.500" r="1.170"/><circle cx="76.500" cy="178.500" r="1.170"/><circle cx="79.500" cy="178.500" r="1.170"/><circle cx="106.500" cy="178.500" r="1.170"/><circle cx="109.500" cy="175.500" r="1.170"/><circle cx="112.500" cy="175.500" r="1.170"/><circle cx="109.500" cy="178.500" r="1.170"/><circle cx="112.500" cy="178.500" r="1.170"/><circle cx="115.500" cy="172.500" r="1.170"/><circle cx="115.500" cy="175.500" r="1.170"/><circle cx="118.500" cy="169.500" r="1.170"/><circle cx="118.500" cy="172.500" r="1.170"/><circle cx="118.500" cy="175.500" r="1.170"/><circle cx="115.500" cy="178.500" r="1.170"/><circle cx="121.500" cy="169.500" r="1.170"/><circle cx="121.500" cy="172.500" r="1.170"/><circle cx="121.500" cy="175.500" r="1.170"/><circle cx="124.500" cy="169.500" r="1.170"/><circle cx="124.500" cy="172.500" r="1.170"/><circle cx="124.500" cy="175.500" r="1.170"/><circle cx="121.500" cy="178.500" r="1.170"/><circle cx="124.500" cy="178.500" r="1.170"/><circle cx="127.500" cy="169.500" r="1.170"/><circle cx="127.500" cy="172.500" r="1.170"/><circle cx="127.500" cy="175.500" r="1.170"/><circle cx="127.500" cy="178.500" r="1.170"/><circle cx="136.500" cy="169.500" r="1.170"/><circle cx="139.500" cy="169.500" r="1.170"/><circle cx="139.500" cy="172.500" r="1.170"/><circle cx="139.500" cy="175.500" r="1.170"/><circle cx="142.500" cy="169.500" r="1.170"/><circle cx="142.500" cy="172.500" r="1.170"/><circle cx="142.500" cy="175.500" r="1.170"/><circle cx="142.500" cy="178.500" r="1.170"/><circle cx="145.500" cy="169.500" r="1.170"/><circle cx="145.500" cy="172.500" r="1.170"/><circle cx="145.500" cy="175.500" r="1.170"/><circle cx="148.500" cy="169.500" r="1.170"/><circle cx="148.500" cy="172.500" r="1.170"/><circle cx="145.500" cy="178.500" r="1.170"/><circle cx="151.500" cy="169.500" r="1.170"/><circle cx="157.500" cy="169.500" r="1.170"/><circle cx="160.500" cy="169.500" r="1.170"/><circle cx="160.500" cy="172.500" r="1.170"/><circle cx="160.500" cy="175.500" r="1.170"/><circle cx="157.500" cy="178.500" r="1.170"/><circle cx="160.500" cy="178.500" r="1.170"/><circle cx="163.500" cy="169.500" r="1.170"/><circle cx="163.500" cy="172.500" r="1.170"/><circle cx="163.500" cy="175.500" r="1.170"/><circle cx="166.500" cy="169.500" r="1.170"/><circle cx="166.500" cy="172.500" r="1.170"/><circle cx="163.500" cy="178.500" r="1.170"/><circle cx="169.500" cy="169.500" r="1.170"/><circle cx="169.500" cy="172.500" r="1.170"/><circle cx="169.500" cy="175.500" r="1.170"/><circle cx="172.500" cy="172.500" r="1.170"/><circle cx="172.500" cy="175.500" r="1.170"/><circle cx="169.500" cy="178.500" r="1.170"/><circle cx="172.500" cy="178.500" r="1.170"/><circle cx="175.500" cy="175.500" r="1.170"/><circle cx="178.500" cy="175.500" r="1.170"/><circle cx="175.500" cy="178.500" r="1.170"/><circle cx="178.500" cy="178.500" r="1.170"/><circle cx="181.500" cy="178.500" r="1.170"/><circle cx="208.500" cy="178.500" r="1.170"/><circle cx="211.500" cy="175.500" r="1.170"/><circle cx="214.500" cy="172.500" r="1.170"/><circle cx="214.500" cy="175.500" r="1.170"/><circle cx="211.500" cy="178.500" r="1.170"/><circle cx="214.500" cy="178.500" r="1.170"/><circle cx="217.500" cy="169.500" r="1.170"/><circle cx="217.500" cy="172.500" r="1.170"/><circle cx="217.500" cy="175.500" r="1.170"/><circle cx="220.500" cy="169.500" r="1.170"/><circle cx="220.500" cy="172.500" r="1.170"/><circle cx="223.500" cy="169.500" r="1.170"/><circle cx="76.500" cy="181.500" r="1.170"/><circle cx="79.500" cy="181.500" r="1.170"/><circle cx="82.500" cy="181.500" r="1.170"/><circle cx="82.500" cy="184.500" r="1.170"/><circle cx="85.500" cy="181.500" r="1.170"/><circle cx="85.500" cy="184.500" r="1.170"/><circle cx="88.500" cy="181.500" r="1.170"/><circle cx="88.500" cy="184.500" r="1.170"/><circle cx="91.500" cy="184.500" r="1.170"/><circle cx="94.500" cy="181.500" r="1.170"/><circle cx="94.500" cy="184.500" r="1.170"/><circle cx="97.500" cy="181.500" r="1.170"/><circle cx="97.500" cy="184.500" r="1.170"/><circle cx="100.500" cy="181.500" r="1.170"/><circle cx="100.500" cy="184.500" r="1.170"/><circle cx="103.500" cy="181.500" r="1.170"/><circle cx="106.500" cy="181.500" r="1.170"/><circle cx="106.500" cy="190.500" r="1.170"/><circle cx="109.500" cy="184.500" r="1.170"/><circle cx="109.500" cy="187.500" r="1.170"/><circle cx="112.500" cy="181.500" r="1.170"/><circle cx="112.500" cy="184.500" r="1.170"/><circle cx="109.500" cy="190.500" r="1.170"/><circle cx="115.500" cy="181.500" r="1.170"/><circle cx="124.500" cy="181.500" r="1.170"/><circle cx="124.500" cy="184.500" r="1.170"/><circle cx="127.500" cy="181.500" r="1.170"/><circle cx="127.500" cy="184.500" r="1.170"/><circle cx="127.500" cy="187.500" r="1.170"/><circle cx="130.500" cy="181.500" r="1.170"/><circle cx="130.500" cy="184.500" r="1.170"/><circle cx="130.500" cy="187.500" r="1.170"/><circle cx="127.500" cy="190.500" r="1.170"/><circle cx="130.500" cy="190.500" r="1.170"/><circle cx="133.500" cy="184.500" r="1.170"/><circle cx="133.500" cy="187.500" r="1.170"/><circle cx="136.500" cy="187.500" r="1.170"/><circle cx="133.500" cy="190.500" r="1.170"/><circle cx="136.500" cy="190.500" r="1.170"/><circle cx="139.500" cy="181.500" r="1.170"/><circle cx="139.500" cy="184.500" r="1.170"/><circle cx="142.500" cy="181.500" r="1.170"/><circle cx="142.500" cy="184.500" r="1.170"/><circle cx="142.500" cy="187.500" r="1.170"/><circle cx="139.500" cy="190.500" r="1.170"/><circle cx="142.500" cy="190.500" r="1.170"/><circle cx="145.500" cy="181.500" r="1.170"/><circle cx="145.500" cy="184.500" r="1.170"/><circle cx="145.500" cy="187.500" r="1.170"/><circle cx="145.500" cy="190.500" r="1.170"/><circle cx="151.500" cy="187.500" r="1.170"/><circle cx="154.500" cy="184.500" r="1.170"/><circle cx="154.500" cy="187.500" r="1.170"/><circle cx="151.500" cy="190.500" r="1.170"/><circle cx="154.500" cy="190.500" r="1.170"/><circle cx="157.500" cy="181.500" r="1.170"/><circle cx="157.500" cy="184.500" r="1.170"/><circle cx="157.500" cy="187.500" r="1.170"/><circle cx="160.500" cy="181.500" r="1.170"/><circle cx="160.500" cy="184.500" r="1.170"/><circle cx="160.500" cy="187.500" r="1.170"/><circle cx="157.500" cy="190.500" r="1.170"/><circle cx="160.500" cy="190.500" r="1.170"/><circle cx="163.500" cy="181.500" r="1.170"/><circle cx="163.500" cy="184.500" r="1.170"/><circle cx="172.500" cy="181.500" r="1.170"/><circle cx="175.500" cy="181.500" r="1.170"/><circle cx="175.500" cy="184.500" r="1.170"/><circle cx="175.500" cy="187.500" r="1.170"/><circle cx="178.500" cy="184.500" r="1.170"/><circle cx="178.500" cy="187.500" r="1.170"/><circle cx="178.500" cy="190.500" r="1.170"/><circle cx="181.500" cy="181.500" r="1.170"/><circle cx="184.500" cy="181.500" r="1.170"/><circle cx="187.500" cy="181.500" r="1.170"/><circle cx="187.500" cy="184.500" r="1.170"/><circle cx="190.500" cy="181.500" r="1.170"/><circle cx="190.500" cy="184.500" r="1.170"/><circle cx="193.500" cy="181.500" r="1.170"/><circle cx="193.500" cy="184.500" r="1.170"/><circle cx="196.500" cy="184.500" r="1.170"/><circle cx="199.500" cy="181.500" r="1.170"/><circle cx="199.500" cy="184.500" r="1.170"/><circle cx="202.500" cy="181.500" r="1.170"/><circle cx="202.500" cy="184.500" r="1.170"/><circle cx="205.500" cy="181.500" r="1.170"/><circle cx="205.500" cy="184.500" r="1.170"/><circle cx="208.500" cy="181.500" r="1.170"/><circle cx="211.500" cy="181.500" r="1.170"/><circle cx="103.500" cy="199.500" r="1.170"/><circle cx="106.500" cy="193.500" r="1.170"/><circle cx="106.500" cy="196.500" r="1.170"/><circle cx="106.500" cy="199.500" r="1.170"/><circle cx="106.500" cy="202.500" r="1.170"/><circle cx="109.500" cy="193.500" r="1.170"/><circle cx="109.500" cy="196.500" r="1.170"/><circle cx="109.500" cy="202.500" r="1.170"/><circle cx="130.500" cy="193.500" r="1.170"/><circle cx="133.500" cy="193.500" r="1.170"/><circle cx="133.500" cy="196.500" r="1.170"/><circle cx="136.500" cy="193.500" r="1.170"/><circle cx="136.500" cy="196.500" r="1.170"/><circle cx="136.500" cy="199.500" r="1.170"/><circle cx="139.500" cy="196.500" r="1.170"/><circle cx="142.500" cy="193.500" r="1.170"/><circle cx="142.500" cy="196.500" r="1.170"/><circle cx="142.500" cy="199.500" r="1.170"/><circle cx="139.500" cy="202.500" r="1.170"/><circle cx="142.500" cy="202.500" r="1.170"/><circle cx="145.500" cy="193.500" r="1.170"/><circle cx="145.500" cy="196.500" r="1.170"/><circle cx="145.500" cy="199.500" r="1.170"/><circle cx="148.500" cy="193.500" r="1.170"/><circle cx="148.500" cy="199.500" r="1.170"/><circle cx="145.500" cy="202.500" r="1.170"/><circle cx="151.500" cy="193.500" r="1.170"/><circle cx="151.500" cy="196.500" r="1.170"/><circle cx="154.500" cy="193.500" r="1.170"/><circle cx="157.500" cy="193.500" r="1.170"/><circle cx="178.500" cy="193.500" r="1.170"/><circle cx="178.500" cy="196.500" r="1.170"/><circle cx="178.500" cy="199.500" r="1.170"/><circle cx="178.500" cy="202.500" r="1.170"/><circle cx="181.500" cy="193.500" r="1.170"/><circle cx="181.500" cy="196.500" r="1.170"/><circle cx="181.500" cy="199.500" r="1.170"/><circle cx="181.500" cy="202.500" r="1.170"/><circle cx="106.500" cy="205.500" r="1.170"/><circle cx="106.500" cy="208.500" r="1.170"/><circle cx="106.500" cy="211.500" r="1.170"/><circle cx="109.500" cy="205.500" r="1.170"/><circle cx="109.500" cy="208.500" r="1.170"/><circle cx="109.500" cy="211.500" r="1.170"/><circle cx="109.500" cy="214.500" r="1.170"/><circle cx="112.500" cy="214.500" r="1.170"/><circle cx="142.500" cy="205.500" r="1.170"/><circle cx="142.500" cy="208.500" r="1.170"/><circle cx="142.500" cy="211.500" r="1.170"/><circle cx="142.500" cy="214.500" r="1.170"/><circle cx="145.500" cy="205.500" r="1.170"/><circle cx="145.500" cy="208.500" r="1.170"/><circle cx="145.500" cy="211.500" r="1.170"/><circle cx="145.500" cy="214.500" r="1.170"/><circle cx="175.500" cy="211.500" r="1.170"/><circle cx="178.500" cy="205.500" r="1.170"/><circle cx="178.500" cy="208.500" r="1.170"/><circle cx="178.500" cy="211.500" r="1.170"/><circle cx="175.500" cy="214.500" r="1.170"/><circle cx="178.500" cy="214.500" r="1.170"/><circle cx="181.500" cy="205.500" r="1.170"/><circle cx="181.500" cy="208.500" r="1.170"/><circle cx="109.500" cy="217.500" r="1.170"/><circle cx="112.500" cy="217.500" r="1.170"/><circle cx="112.500" cy="220.500" r="1.170"/><circle cx="115.500" cy="217.500" r="1.170"/><circle cx="115.500" cy="220.500" r="1.170"/><circle cx="115.500" cy="223.500" r="1.170"/><circle cx="118.500" cy="223.500" r="1.170"/><circle cx="118.500" cy="226.500" r="1.170"/><circle cx="121.500" cy="226.500" r="1.170"/><circle cx="142.500" cy="217.500" r="1.170"/><circle cx="142.500" cy="220.500" r="1.170"/><circle cx="145.500" cy="217.500" r="1.170"/><circle cx="166.500" cy="223.500" r="1.170"/><circle cx="166.500" cy="226.500" r="1.170"/><circle cx="169.500" cy="220.500" r="1.170"/><circle cx="169.500" cy="223.500" r="1.170"/><circle cx="172.500" cy="217.500" r="1.170"/><circle cx="172.500" cy="220.500" r="1.170"/><circle cx="172.500" cy="223.500" r="1.170"/><circle cx="169.500" cy="226.500" r="1.170"/><circle cx="175.500" cy="217.500" r="1.170"/><circle cx="175.500" cy="220.500" r="1.170"/><circle cx="118.500" cy="229.500" r="1.170"/><circle cx="121.500" cy="229.500" r="1.170"/><circle cx="121.500" cy="232.500" r="1.170"/><circle cx="121.500" cy="235.500" r="1.170"/><circle cx="124.500" cy="229.500" r="1.170"/><circle cx="124.500" cy="232.500" r="1.170"/><circle cx="124.500" cy="235.500" r="1.170"/><circle cx="121.500" cy="238.500" r="1.170"/><circle cx="124.500" cy="238.500" r="1.170"/><circle cx="127.500" cy="232.500" r="1.170"/><circle cx="127.500" cy="235.500" r="1.170"/><circle cx="130.500" cy="235.500" r="1.170"/><circle cx="127.500" cy="238.500" r="1.170"/><circle cx="130.500" cy="238.500" r="1.170"/><circle cx="154.500" cy="238.500" r="1.170"/><circle cx="157.500" cy="235.500" r="1.170"/><circle cx="160.500" cy="232.500" r="1.170"/><circle cx="160.500" cy="235.500" r="1.170"/><circle cx="157.500" cy="238.500" r="1.170"/><circle cx="160.500" cy="238.500" r="1.170"/><circle cx="163.500" cy="229.500" r="1.170"/><circle cx="163.500" cy="232.500" r="1.170"/><circle cx="166.500" cy="229.500" r="1.170"/><circle cx="121.500" cy="247.500" r="1.170"/><circle cx="124.500" cy="241.500" r="1.170"/><circle cx="124.500" cy="244.500" r="1.170"/><circle cx="124.500" cy="247.500" r="1.170"/><circle cx="121.500" cy="250.500" r="1.170"/><circle cx="124.500" cy="250.500" r="1.170"/><circle cx="127.500" cy="241.500" r="1.170"/><circle cx="127.500" cy="244.500" r="1.170"/><circle cx="127.500" cy="247.500" r="1.170"/><circle cx="130.500" cy="241.500" r="1.170"/><circle cx="130.500" cy="244.500" r="1.170"/><circle cx="127.500" cy="250.500" r="1.170"/><circle cx="133.500" cy="241.500" r="1.170"/><circle cx="133.500" cy="244.500" r="1.170"/><circle cx="133.500" cy="247.500" r="1.170"/><circle cx="136.500" cy="244.500" r="1.170"/><circle cx="136.500" cy="247.500" r="1.170"/><circle cx="136.500" cy="250.500" r="1.170"/><circle cx="139.500" cy="250.500" r="1.170"/><circle cx="148.500" cy="247.500" r="1.170"/><circle cx="148.500" cy="250.500" r="1.170"/><circle cx="151.500" cy="244.500" r="1.170"/><circle cx="151.500" cy="247.500" r="1.170"/><circle cx="154.500" cy="241.500" r="1.170"/><circle cx="154.500" cy="244.500" r="1.170"/><circle cx="154.500" cy="247.500" r="1.170"/><circle cx="151.500" cy="250.500" r="1.170"/><circle cx="157.500" cy="241.500" r="1.170"/><circle cx="118.500" cy="256.500" r="1.170"/><circle cx="118.500" cy="259.500" r="1.170"/><circle cx="118.500" cy="262.500" r="1.170"/><circle cx="121.500" cy="253.500" r="1.170"/><circle cx="121.500" cy="256.500" r="1.170"/><circle cx="121.500" cy="259.500" r="1.170"/><circle cx="124.500" cy="253.500" r="1.170"/><circle cx="124.500" cy="256.500" r="1.170"/><circle cx="124.500" cy="259.500" r="1.170"/><circle cx="121.500" cy="262.500" r="1.170"/><circle cx="124.500" cy="262.500" r="1.170"/><circle cx="127.500" cy="253.500" r="1.170"/><circle cx="127.500" cy="256.500" r="1.170"/><circle cx="127.500" cy="259.500" r="1.170"/><circle cx="130.500" cy="253.500" r="1.170"/><circle cx="130.500" cy="256.500" r="1.170"/><circle cx="130.500" cy="259.500" r="1.170"/><circle cx="127.500" cy="262.500" r="1.170"/><circle cx="130.500" cy="262.500" r="1.170"/><circle cx="136.500" cy="253.500" r="1.170"/><circle cx="139.500" cy="253.500" r="1.170"/><circle cx="139.500" cy="256.500" r="1.170"/><circle cx="139.500" cy="259.500" r="1.170"/><circle cx="142.500" cy="256.500" r="1.170"/><circle cx="142.500" cy="259.500" r="1.170"/><circle cx="139.500" cy="262.500" r="1.170"/><circle cx="142.500" cy="262.500" r="1.170"/><circle cx="145.500" cy="256.500" r="1.170"/><circle cx="145.500" cy="259.500" r="1.170"/><circle cx="148.500" cy="253.500" r="1.170"/><circle cx="148.500" cy="256.500" r="1.170"/><circle cx="148.500" cy="259.500" r="1.170"/><circle cx="145.500" cy="262.500" r="1.170"/><circle cx="148.500" cy="262.500" r="1.170"/><circle cx="151.500" cy="253.500" r="1.170"/><circle cx="121.500" cy="265.500" r="1.170"/><circle cx="124.500" cy="265.500" r="1.170"/><circle cx="127.500" cy="265.500" r="1.170"/><circle cx="139.500" cy="265.500" r="1.170"/><circle cx="139.500" cy="268.500" r="1.170"/><circle cx="142.500" cy="265.500" r="1.170"/><circle cx="142.500" cy="268.500" r="1.170"/><circle cx="142.500" cy="271.500" r="1.170"/><circle cx="139.500" cy="274.500" r="1.170"/><circle cx="142.500" cy="274.500" r="1.170"/><circle cx="145.500" cy="265.500" r="1.170"/><circle cx="145.500" cy="268.500" r="1.170"/><circle cx="145.500" cy="271.500" r="1.170"/><circle cx="145.500" cy="274.500" r="1.170"/><circle cx="139.500" cy="280.500" r="1.170"/><circle cx="139.500" cy="283.500" r="1.170"/><circle cx="142.500" cy="277.500" r="1.170"/><circle cx="142.500" cy="280.500" r="1.170"/><circle cx="142.500" cy="283.500" r="1.170"/><circle cx="139.500" cy="286.500" r="1.170"/><circle cx="142.500" cy="286.500" r="1.170"/><circle cx="145.500" cy="277.500" r="1.170"/><circle cx="145.500" cy="280.500" r="1.170"/><circle cx="145.500" cy="283.500" r="1.170"/><circle cx="145.500" cy="286.500" r="1.170"/><circle cx="139.500" cy="289.500" r="1.170"/><circle cx="139.500" cy="292.500" r="1.170"/><circle cx="139.500" cy="295.500" r="1.170"/><circle cx="142.500" cy="289.500" r="1.170"/><circle cx="142.500" cy="292.500" r="1.170"/><circle cx="142.500" cy="295.500" r="1.170"/><circle cx="139.500" cy="298.500" r="1.170"/><circle cx="142.500" cy="298.500" r="1.170"/><circle cx="145.500" cy="289.500" r="1.170"/><circle cx="145.500" cy="292.500" r="1.170"/><circle cx="145.500" cy="295.500" r="1.170"/><circle cx="148.500" cy="292.500" r="1.170"/><circle cx="148.500" cy="295.500" r="1.170"/><circle cx="145.500" cy="298.500" r="1.170"/><circle cx="148.500" cy="298.500" r="1.170"/><circle cx="136.500" cy="301.500" r="1.170"/><circle cx="136.500" cy="304.500" r="1.170"/><circle cx="136.500" cy="307.500" r="1.170"/><circle cx="139.500" cy="301.500" r="1.170"/><circle cx="139.500" cy="304.500" r="1.170"/><circle cx="139.500" cy="307.500" r="1.170"/><circle cx="142.500" cy="301.500" r="1.170"/><circle cx="142.500" cy="304.500" r="1.170"/><circle cx="142.500" cy="307.500" r="1.170"/><circle cx="139.500" cy="310.500" r="1.170"/><circle cx="142.500" cy="310.500" r="1.170"/><circle cx="145.500" cy="301.500" r="1.170"/><circle cx="145.500" cy="304.500" r="1.170"/><circle cx="145.500" cy="307.500" r="1.170"/><circle cx="148.500" cy="301.500" r="1.170"/><circle cx="148.500" cy="304.500" r="1.170"/><circle cx="148.500" cy="307.500" r="1.170"/><circle cx="145.500" cy="310.500" r="1.170"/><circle cx="148.500" cy="310.500" r="1.170"/></svg>