<svg width="420" height="180" xmlns="http://www.w3.org/2000/svg">
  <style>
    .title { 
      fill: #A0AEC0; 
      font-family: 'SF Mono', 'Monaco', 'Inconsolata', 'Fira Code', 'Droid Sans Mono', 'Source Code Pro', monospace;
      font-size: 12px;
      font-weight: 600;
      letter-spacing: 1px;
    }
    .lang-name { 
      fill: #E2E8F0; 
      font-family: 'SF Mono', 'Monaco', 'Inconsolata', 'Fira Code', 'Droid Sans Mono', 'Source Code Pro', monospace;
      font-size: 13px;
      font-weight: 500;
    }
    .percent { 
      fill: #CBD5E0; 
      font-family: 'SF Mono', 'Monaco', 'Inconsolata', 'Fira Code', 'Droid Sans Mono', 'Source Code Pro', monospace;
      font-size: 13px;
      font-weight: 500;
    }
    .bar-filled { fill: #D1D5DB; }
    .bar-empty { fill: #374151; }
  </style>
  
  <rect width="420" height="180" fill="transparent"/>
  
  <!-- Title -->
  <text x="20" y="25" class="title">MOST USED LANGUAGES</text>
  
  <!-- TypeScript - 29.5% = 12 blocks -->
  <text x="20" y="52" class="lang-name">TypeScript</text>
  <rect x="140" y="42" width="10" height="12" class="bar-filled"/>
  <rect x="152" y="42" width="10" height="12" class="bar-filled"/>
  <rect x="164" y="42" width="10" height="12" class="bar-filled"/>
  <rect x="176" y="42" width="10" height="12" class="bar-filled"/>
  <rect x="188" y="42" width="10" height="12" class="bar-filled"/>
  <rect x="200" y="42" width="10" height="12" class="bar-filled"/>
  <rect x="212" y="42" width="10" height="12" class="bar-filled"/>
  <rect x="224" y="42" width="10" height="12" class="bar-filled"/>
  <rect x="236" y="42" width="10" height="12" class="bar-filled"/>
  <rect x="248" y="42" width="10" height="12" class="bar-filled"/>
  <rect x="260" y="42" width="10" height="12" class="bar-filled"/>
  <rect x="272" y="42" width="10" height="12" class="bar-filled"/>
  <rect x="284" y="42" width="10" height="12" class="bar-empty"/>
  <rect x="296" y="42" width="10" height="12" class="bar-empty"/>
  <rect x="308" y="42" width="10" height="12" class="bar-empty"/>
  <rect x="320" y="42" width="10" height="12" class="bar-empty"/>
  <rect x="332" y="42" width="10" height="12" class="bar-empty"/>
  <rect x="344" y="42" width="10" height="12" class="bar-empty"/>
  <rect x="356" y="42" width="10" height="12" class="bar-empty"/>
  <rect x="368" y="42" width="10" height="12" class="bar-empty"/>
  <text x="385" y="52" class="percent">29.5%</text>
  
  <!-- Python - 28.9% = 11 blocks -->
  <text x="20" y="74" class="lang-name">Python</text>
  <rect x="140" y="64" width="10" height="12" class="bar-filled"/>
  <rect x="152" y="64" width="10" height="12" class="bar-filled"/>
  <rect x="164" y="64" width="10" height="12" class="bar-filled"/>
  <rect x="176" y="64" width="10" height="12" class="bar-filled"/>
  <rect x="188" y="64" width="10" height="12" class="bar-filled"/>
  <rect x="200" y="64" width="10" height="12" class="bar-filled"/>
  <rect x="212" y="64" width="10" height="12" class="bar-filled"/>
  <rect x="224" y="64" width="10" height="12" class="bar-filled"/>
  <rect x="236" y="64" width="10" height="12" class="bar-filled"/>
  <rect x="248" y="64" width="10" height="12" class="bar-filled"/>
  <rect x="260" y="64" width="10" height="12" class="bar-filled"/>
  <rect x="272" y="64" width="10" height="12" class="bar-empty"/>
  <rect x="284" y="64" width="10" height="12" class="bar-empty"/>
  <rect x="296" y="64" width="10" height="12" class="bar-empty"/>
  <rect x="308" y="64" width="10" height="12" class="bar-empty"/>
  <rect x="320" y="64" width="10" height="12" class="bar-empty"/>
  <rect x="332" y="64" width="10" height="12" class="bar-empty"/>
  <rect x="344" y="64" width="10" height="12" class="bar-empty"/>
  <rect x="356" y="64" width="10" height="12" class="bar-empty"/>
  <rect x="368" y="64" width="10" height="12" class="bar-empty"/>
  <text x="385" y="74" class="percent">28.9%</text>
  
  <!-- C - 18.4% = 8 blocks -->
  <text x="20" y="96" class="lang-name">C</text>
  <rect x="140" y="86" width="10" height="12" class="bar-filled"/>
  <rect x="152" y="86" width="10" height="12" class="bar-filled"/>
  <rect x="164" y="86" width="10" height="12" class="bar-filled"/>
  <rect x="176" y="86" width="10" height="12" class="bar-filled"/>
  <rect x="188" y="86" width="10" height="12" class="bar-filled"/>
  <rect x="200" y="86" width="10" height="12" class="bar-filled"/>
  <rect x="212" y="86" width="10" height="12" class="bar-filled"/>
  <rect x="224" y="86" width="10" height="12" class="bar-filled"/>
  <rect x="236" y="86" width="10" height="12" class="bar-empty"/>
  <rect x="248" y="86" width="10" height="12" class="bar-empty"/>
  <rect x="260" y="86" width="10" height="12" class="bar-empty"/>
  <rect x="272" y="86" width="10" height="12" class="bar-empty"/>
  <rect x="284" y="86" width="10" height="12" class="bar-empty"/>
  <rect x="296" y="86" width="10" height="12" class="bar-empty"/>
  <rect x="308" y="86" width="10" height="12" class="bar-empty"/>
  <rect x="320" y="86" width="10" height="12" class="bar-empty"/>
  <rect x="332" y="86" width="10" height="12" class="bar-empty"/>
  <rect x="344" y="86" width="10" height="12" class="bar-empty"/>
  <rect x="356" y="86" width="10" height="12" class="bar-empty"/>
  <rect x="368" y="86" width="10" height="12" class="bar-empty"/>
  <text x="385" y="96" class="percent">18.4%</text>
  
  <!-- JavaScript - 12.3% = 5 blocks -->
  <text x="20" y="118" class="lang-name">JavaScript</text>
  <rect x="140" y="108" width="10" height="12" class="bar-filled"/>
  <rect x="152" y="108" width="10" height="12" class="bar-filled"/>
  <rect x="164" y="108" width="10" height="12" class="bar-filled"/>
  <rect x="176" y="108" width="10" height="12" class="bar-filled"/>
  <rect x="188" y="108" width="10" height="12" class="bar-filled"/>
  <rect x="200" y="108" width="10" height="12" class="bar-empty"/>
  <rect x="212" y="108" width="10" height="12" class="bar-empty"/>
  <rect x="224" y="108" width="10" height="12" class="bar-empty"/>
  <rect x="236" y="108" width="10" height="12" class="bar-empty"/>
  <rect x="248" y="108" width="10" height="12" class="bar-empty"/>
  <rect x="260" y="108" width="10" height="12" class="bar-empty"/>
  <rect x="272" y="108" width="10" height="12" class="bar-empty"/>
  <rect x="284" y="108" width="10" height="12" class="bar-empty"/>
  <rect x="296" y="108" width="10" height="12" class="bar-empty"/>
  <rect x="308" y="108" width="10" height="12" class="bar-empty"/>
  <rect x="320" y="108" width="10" height="12" class="bar-empty"/>
  <rect x="332" y="108" width="10" height="12" class="bar-empty"/>
  <rect x="344" y="108" width="10" height="12" class="bar-empty"/>
  <rect x="356" y="108" width="10" height="12" class="bar-empty"/>
  <rect x="368" y="108" width="10" height="12" class="bar-empty"/>
  <text x="385" y="118" class="percent">12.3%</text>
  
  <!-- Shell - 7.8% = 3 blocks -->
  <text x="20" y="140" class="lang-name">Shell</text>
  <rect x="140" y="130" width="10" height="12" class="bar-filled"/>
  <rect x="152" y="130" width="10" height="12" class="bar-filled"/>
  <rect x="164" y="130" width="10" height="12" class="bar-filled"/>
  <rect x="176" y="130" width="10" height="12" class="bar-empty"/>
  <rect x="188" y="130" width="10" height="12" class="bar-empty"/>
  <rect x="200" y="130" width="10" height="12" class="bar-empty"/>
  <rect x="212" y="130" width="10" height="12" class="bar-empty"/>
  <rect x="224" y="130" width="10" height="12" class="bar-empty"/>
  <rect x="236" y="130" width="10" height="12" class="bar-empty"/>
  <rect x="248" y="130" width="10" height="12" class="bar-empty"/>
  <rect x="260" y="130" width="10" height="12" class="bar-empty"/>
  <rect x="272" y="130" width="10" height="12" class="bar-empty"/>
  <rect x="284" y="130" width="10" height="12" class="bar-empty"/>
  <rect x="296" y="130" width="10" height="12" class="bar-empty"/>
  <rect x="308" y="130" width="10" height="12" class="bar-empty"/>
  <rect x="320" y="130" width="10" height="12" class="bar-empty"/>
  <rect x="332" y="130" width="10" height="12" class="bar-empty"/>
  <rect x="344" y="130" width="10" height="12" class="bar-empty"/>
  <rect x="356" y="130" width="10" height="12" class="bar-empty"/>
  <rect x="368" y="130" width="10" height="12" class="bar-empty"/>
  <text x="385" y="140" class="percent">7.8%</text>
  
  <!-- HTML - 3.1% = 1 block -->
  <text x="20" y="162" class="lang-name">HTML</text>
  <rect x="140" y="152" width="10" height="12" class="bar-filled"/>
  <rect x="152" y="152" width="10" height="12" class="bar-empty"/>
  <rect x="164" y="152" width="10" height="12" class="bar-empty"/>
  <rect x="176" y="152" width="10" height="12" class="bar-empty"/>
  <rect x="188" y="152" width="10" height="12" class="bar-empty"/>
  <rect x="200" y="152" width="10" height="12" class="bar-empty"/>
  <rect x="212" y="152" width="10" height="12" class="bar-empty"/>
  <rect x="224" y="152" width="10" height="12" class="bar-empty"/>
  <rect x="236" y="152" width="10" height="12" class="bar-empty"/>
  <rect x="248" y="152" width="10" height="12" class="bar-empty"/>
  <rect x="260" y="152" width="10" height="12" class="bar-empty"/>
  <rect x="272" y="152" width="10" height="12" class="bar-empty"/>
  <rect x="284" y="152" width="10" height="12" class="bar-empty"/>
  <rect x="296" y="152" width="10" height="12" class="bar-empty"/>
  <rect x="308" y="152" width="10" height="12" class="bar-empty"/>
  <rect x="320" y="152" width="10" height="12" class="bar-empty"/>
  <rect x="332" y="152" width="10" height="12" class="bar-empty"/>
  <rect x="344" y="152" width="10" height="12" class="bar-empty"/>
  <rect x="356" y="152" width="10" height="12" class="bar-empty"/>
  <rect x="368" y="152" width="10" height="12" class="bar-empty"/>
  <text x="385" y="162" class="percent">3.1%</text>
</svg>
