<svg xmlns="http://www.w3.org/2000/svg" viewBox="0 0 1200.000 1296.000" width="100%" fill="currentColor" shape-rendering="geometricPrecision" preserveAspectRatio="xMidYMid meet"><circle cx="570.000" cy="90.000" r="2.880"/><circle cx="570.000" cy="102.000" r="2.880"/><circle cx="570.000" cy="114.000" r="2.880"/><circle cx="570.000" cy="126.000" r="2.880"/><circle cx="558.000" cy="138.000" r="2.880"/><circle cx="570.000" cy="138.000" r="2.880"/><circle cx="582.000" cy="102.000" r="2.880"/><circle cx="582.000" cy="114.000" r="2.880"/><circle cx="582.000" cy="126.000" r="2.880"/><circle cx="582.000" cy="138.000" r="2.880"/><circle cx="546.000" cy="174.000" r="2.880"/><circle cx="546.000" cy="186.000" r="2.880"/><circle cx="558.000" cy="150.000" r="2.880"/><circle cx="558.000" cy="162.000" r="2.880"/><circle cx="558.000" cy="174.000" r="2.880"/><circle cx="570.000" cy="150.000" r="2.880"/><circle cx="558.000" cy="186.000" r="2.880"/><circle cx="582.000" cy="150.000" r="2.880"/><circle cx="582.000" cy="162.000" r="2.880"/><circle cx="594.000" cy="150.000" r="2.880"/><circle cx="594.000" cy="162.000" r="2.880"/><circle cx="594.000" cy="174.000" r="2.880"/><circle cx="594.000" cy="186.000" r="2.880"/><circle cx="606.000" cy="174.000" r="2.880"/><circle cx="606.000" cy="186.000" r="2.880"/><circle cx="498.000" cy="234.000" r="2.880"/><circle cx="510.000" cy="222.000" r="2.880"/><circle cx="522.000" cy="210.000" r="2.880"/><circle cx="522.000" cy="222.000" r="2.880"/><circle cx="510.000" cy="234.000" r="2.880"/><circle cx="522.000" cy="234.000" r="2.880"/><circle cx="534.000" cy="198.000" r="2.880"/><circle cx="534.000" cy="210.000" r="2.880"/><circle cx="534.000" cy="222.000" r="2.880"/><circle cx="546.000" cy="198.000" r="2.880"/><circle cx="606.000" cy="198.000" r="2.880"/><circle cx="606.000" cy="210.000" r="2.880"/><circle cx="618.000" cy="198.000" r="2.880"/><circle cx="618.000" cy="210.000" r="2.880"/><circle cx="618.000" cy="222.000" r="2.880"/><circle cx="630.000" cy="210.000" r="2.880"/><circle cx="630.000" cy="222.000" r="2.880"/><circle cx="630.000" cy="234.000" r="2.880"/><circle cx="642.000" cy="234.000" r="2.880"/><circle cx="654.000" cy="234.000" r="2.880"/><circle cx="462.000" cy="270.000" r="2.880"/><circle cx="474.000" cy="258.000" r="2.880"/><circle cx="474.000" cy="270.000" r="2.880"/><circle cx="462.000" cy="282.000" r="2.880"/><circle cx="474.000" cy="282.000" r="2.880"/><circle cx="486.000" cy="246.000" r="2.880"/><circle cx="486.000" cy="258.000" r="2.880"/><circle cx="486.000" cy="270.000" r="2.880"/><circle cx="498.000" cy="246.000" r="2.880"/><circle cx="498.000" cy="258.000" r="2.880"/><circle cx="510.000" cy="246.000" r="2.880"/><circle cx="642.000" cy="246.000" r="2.880"/><circle cx="654.000" cy="246.000" r="2.880"/><circle cx="654.000" cy="258.000" r="2.880"/><circle cx="666.000" cy="258.000" r="2.880"/><circle cx="666.000" cy="270.000" r="2.880"/><circle cx="678.000" cy="258.000" r="2.880"/><circle cx="678.000" cy="270.000" r="2.880"/><circle cx="678.000" cy="282.000" r="2.880"/><circle cx="690.000" cy="282.000" r="2.880"/><circle cx="426.000" cy="330.000" r="2.880"/><circle cx="438.000" cy="306.000" r="2.880"/><circle cx="438.000" cy="318.000" r="2.880"/><circle cx="450.000" cy="294.000" r="2.880"/><circle cx="450.000" cy="306.000" r="2.880"/><circle cx="450.000" cy="318.000" r="2.880"/><circle cx="438.000" cy="330.000" r="2.880"/><circle cx="462.000" cy="294.000" r="2.880"/><circle cx="570.000" cy="330.000" r="2.880"/><circle cx="690.000" cy="294.000" r="2.880"/><circle cx="690.000" cy="306.000" r="2.880"/><circle cx="702.000" cy="294.000" r="2.880"/><circle cx="702.000" cy="306.000" r="2.880"/><circle cx="702.000" cy="318.000" r="2.880"/><circle cx="714.000" cy="306.000" r="2.880"/><circle cx="714.000" cy="318.000" r="2.880"/><circle cx="714.000" cy="330.000" r="2.880"/><circle cx="726.000" cy="330.000" r="2.880"/><circle cx="426.000" cy="342.000" r="2.880"/><circle cx="426.000" cy="354.000" r="2.880"/><circle cx="426.000" cy="366.000" r="2.880"/><circle cx="426.000" cy="378.000" r="2.880"/><circle cx="438.000" cy="342.000" r="2.880"/><circle cx="438.000" cy="354.000" r="2.880"/><circle cx="438.000" cy="366.000" r="2.880"/><circle cx="438.000" cy="378.000" r="2.880"/><circle cx="570.000" cy="342.000" r="2.880"/><circle cx="570.000" cy="354.000" r="2.880"/><circle cx="570.000" cy="366.000" r="2.880"/><circle cx="570.000" cy="378.000" r="2.880"/><circle cx="582.000" cy="342.000" r="2.880"/><circle cx="582.000" cy="354.000" r="2.880"/><circle cx="582.000" cy="366.000" r="2.880"/><circle cx="582.000" cy="378.000" r="2.880"/><circle cx="714.000" cy="342.000" r="2.880"/><circle cx="714.000" cy="354.000" r="2.880"/><circle cx="714.000" cy="366.000" r="2.880"/><circle cx="714.000" cy="378.000" r="2.880"/><circle cx="726.000" cy="342.000" r="2.880"/><circle cx="726.000" cy="354.000" r="2.880"/><circle cx="726.000" cy="366.000" r="2.880"/><circle cx="726.000" cy="378.000" r="2.880"/><circle cx="330.000" cy="426.000" r="2.880"/><circle cx="342.000" cy="426.000" r="2.880"/><circle cx="354.000" cy="426.000" r="2.880"/><circle cx="366.000" cy="426.000" r="2.880"/><circle cx="378.000" cy="426.000" r="2.880"/><circle cx="390.000" cy="426.000" r="2.880"/><circle cx="402.000" cy="426.000" r="2.880"/><circle cx="426.000" cy="390.000" r="2.880"/><circle cx="426.000" cy="402.000" r="2.880"/><circle cx="438.000" cy="390.000" r="2.880"/><circle cx="438.000" cy="402.000" r="2.880"/><circle cx="438.000" cy="414.000" r="2.880"/><circle cx="438.000" cy="426.000" r="2.880"/><circle cx="450.000" cy="426.000" r="2.880"/><circle cx="522.000" cy="414.000" r="2.880"/><circle cx="510.000" cy="426.000" r="2.880"/><circle cx="522.000" cy="426.000" r="2.880"/><circle cx="534.000" cy="402.000" r="2.880"/><circle cx="534.000" cy="414.000" r="2.880"/><circle cx="534.000" cy="426.000" r="2.880"/><circle cx="558.000" cy="390.000" r="2.880"/><circle cx="558.000" cy="402.000" r="2.880"/><circle cx="570.000" cy="390.000" r="2.880"/><circle cx="570.000" cy="402.000" r="2.880"/><circle cx="570.000" cy="414.000" r="2.880"/><circle cx="558.000" cy="426.000" r="2.880"/><circle cx="570.000" cy="426.000" r="2.880"/><circle cx="582.000" cy="390.000" r="2.880"/><circle cx="582.000" cy="402.000" r="2.880"/><circle cx="582.000" cy="414.000" r="2.880"/><circle cx="582.000" cy="426.000" r="2.880"/><circle cx="606.000" cy="402.000" r="2.880"/><circle cx="606.000" cy="414.000" r="2.880"/><circle cx="618.000" cy="414.000" r="2.880"/><circle cx="606.000" cy="426.000" r="2.880"/><circle cx="618.000" cy="426.000" r="2.880"/><circle cx="630.000" cy="414.000" r="2.880"/><circle cx="630.000" cy="426.000" r="2.880"/><circle cx="642.000" cy="426.000" r="2.880"/><circle cx="702.000" cy="414.000" r="2.880"/><circle cx="714.000" cy="390.000" r="2.880"/><circle cx="714.000" cy="402.000" r="2.880"/><circle cx="714.000" cy="414.000" r="2.880"/><circle cx="702.000" cy="426.000" r="2.880"/><circle cx="714.000" cy="426.000" r="2.880"/><circle cx="726.000" cy="390.000" r="2.880"/><circle cx="726.000" cy="402.000" r="2.880"/><circle cx="750.000" cy="426.000" r="2.880"/><circle cx="762.000" cy="426.000" r="2.880"/><circle cx="774.000" cy="426.000" r="2.880"/><circle cx="786.000" cy="426.000" r="2.880"/><circle cx="798.000" cy="426.000" r="2.880"/><circle cx="810.000" cy="426.000" r="2.880"/><circle cx="822.000" cy="426.000" r="2.880"/><circle cx="282.000" cy="462.000" r="2.880"/><circle cx="270.000" cy="474.000" r="2.880"/><circle cx="282.000" cy="474.000" r="2.880"/><circle cx="294.000" cy="450.000" r="2.880"/><circle cx="294.000" cy="462.000" r="2.880"/><circle cx="306.000" cy="438.000" r="2.880"/><circle cx="306.000" cy="450.000" r="2.880"/><circle cx="306.000" cy="462.000" r="2.880"/><circle cx="318.000" cy="438.000" r="2.880"/><circle cx="318.000" cy="450.000" r="2.880"/><circle cx="330.000" cy="438.000" r="2.880"/><circle cx="342.000" cy="438.000" r="2.880"/><circle cx="354.000" cy="438.000" r="2.880"/><circle cx="378.000" cy="438.000" r="2.880"/><circle cx="390.000" cy="438.000" r="2.880"/><circle cx="402.000" cy="438.000" r="2.880"/><circle cx="414.000" cy="438.000" r="2.880"/><circle cx="426.000" cy="438.000" r="2.880"/><circle cx="426.000" cy="450.000" r="2.880"/><circle cx="438.000" cy="450.000" r="2.880"/><circle cx="438.000" cy="462.000" r="2.880"/><circle cx="450.000" cy="438.000" r="2.880"/><circle cx="450.000" cy="450.000" r="2.880"/><circle cx="450.000" cy="462.000" r="2.880"/><circle cx="450.000" cy="474.000" r="2.880"/><circle cx="462.000" cy="438.000" r="2.880"/><circle cx="462.000" cy="450.000" r="2.880"/><circle cx="462.000" cy="462.000" r="2.880"/><circle cx="474.000" cy="462.000" r="2.880"/><circle cx="462.000" cy="474.000" r="2.880"/><circle cx="474.000" cy="474.000" r="2.880"/><circle cx="498.000" cy="438.000" r="2.880"/><circle cx="498.000" cy="450.000" r="2.880"/><circle cx="498.000" cy="462.000" r="2.880"/><circle cx="486.000" cy="474.000" r="2.880"/><circle cx="498.000" cy="474.000" r="2.880"/><circle cx="510.000" cy="438.000" r="2.880"/><circle cx="510.000" cy="450.000" r="2.880"/><circle cx="510.000" cy="462.000" r="2.880"/><circle cx="522.000" cy="438.000" r="2.880"/><circle cx="522.000" cy="450.000" r="2.880"/><circle cx="522.000" cy="462.000" r="2.880"/><circle cx="510.000" cy="474.000" r="2.880"/><circle cx="534.000" cy="438.000" r="2.880"/><circle cx="546.000" cy="438.000" r="2.880"/><circle cx="570.000" cy="438.000" r="2.880"/><circle cx="570.000" cy="450.000" r="2.880"/><circle cx="570.000" cy="462.000" r="2.880"/><circle cx="582.000" cy="438.000" r="2.880"/><circle cx="606.000" cy="438.000" r="2.880"/><circle cx="618.000" cy="438.000" r="2.880"/><circle cx="618.000" cy="450.000" r="2.880"/><circle cx="630.000" cy="438.000" r="2.880"/><circle cx="630.000" cy="450.000" r="2.880"/><circle cx="630.000" cy="462.000" r="2.880"/><circle cx="642.000" cy="438.000" r="2.880"/><circle cx="642.000" cy="450.000" r="2.880"/><circle cx="642.000" cy="462.000" r="2.880"/><circle cx="630.000" cy="474.000" r="2.880"/><circle cx="642.000" cy="474.000" r="2.880"/><circle cx="654.000" cy="450.000" r="2.880"/><circle cx="654.000" cy="462.000" r="2.880"/><circle cx="654.000" cy="474.000" r="2.880"/><circle cx="666.000" cy="474.000" r="2.880"/><circle cx="678.000" cy="462.000" r="2.880"/><circle cx="690.000" cy="438.000" r="2.880"/><circle cx="690.000" cy="450.000" r="2.880"/><circle cx="690.000" cy="462.000" r="2.880"/><circle cx="678.000" cy="474.000" r="2.880"/><circle cx="690.000" cy="474.000" r="2.880"/><circle cx="702.000" cy="438.000" r="2.880"/><circle cx="702.000" cy="450.000" r="2.880"/><circle cx="702.000" cy="462.000" r="2.880"/><circle cx="714.000" cy="450.000" r="2.880"/><circle cx="714.000" cy="462.000" r="2.880"/><circle cx="726.000" cy="438.000" r="2.880"/><circle cx="726.000" cy="450.000" r="2.880"/><circle cx="738.000" cy="438.000" r="2.880"/><circle cx="750.000" cy="438.000" r="2.880"/><circle cx="762.000" cy="438.000" r="2.880"/><circle cx="774.000" cy="438.000" r="2.880"/><circle cx="798.000" cy="438.000" r="2.880"/><circle cx="810.000" cy="438.000" r="2.880"/><circle cx="822.000" cy="438.000" r="2.880"/><circle cx="834.000" cy="438.000" r="2.880"/><circle cx="834.000" cy="450.000" r="2.880"/><circle cx="846.000" cy="438.000" r="2.880"/><circle cx="846.000" cy="450.000" r="2.880"/><circle cx="846.000" cy="462.000" r="2.880"/><circle cx="858.000" cy="450.000" r="2.880"/><circle cx="858.000" cy="462.000" r="2.880"/><circle cx="858.000" cy="474.000" r="2.880"/><circle cx="870.000" cy="462.000" r="2.880"/><circle cx="870.000" cy="474.000" r="2.880"/><circle cx="882.000" cy="474.000" r="2.880"/><circle cx="234.000" cy="510.000" r="2.880"/><circle cx="222.000" cy="522.000" r="2.880"/><circle cx="234.000" cy="522.000" r="2.880"/><circle cx="246.000" cy="498.000" r="2.880"/><circle cx="246.000" cy="510.000" r="2.880"/><circle cx="258.000" cy="486.000" r="2.880"/><circle cx="258.000" cy="498.000" r="2.880"/><circle cx="258.000" cy="510.000" r="2.880"/><circle cx="246.000" cy="522.000" r="2.880"/><circle cx="270.000" cy="486.000" r="2.880"/><circle cx="270.000" cy="498.000" r="2.880"/><circle cx="282.000" cy="486.000" r="2.880"/><circle cx="426.000" cy="510.000" r="2.880"/><circle cx="414.000" cy="522.000" r="2.880"/><circle cx="426.000" cy="522.000" r="2.880"/><circle cx="438.000" cy="510.000" r="2.880"/><circle cx="450.000" cy="498.000" r="2.880"/><circle cx="450.000" cy="510.000" r="2.880"/><circle cx="438.000" cy="522.000" r="2.880"/><circle cx="450.000" cy="522.000" r="2.880"/><circle cx="462.000" cy="498.000" r="2.880"/><circle cx="462.000" cy="510.000" r="2.880"/><circle cx="474.000" cy="486.000" r="2.880"/><circle cx="474.000" cy="498.000" r="2.880"/><circle cx="474.000" cy="510.000" r="2.880"/><circle cx="462.000" cy="522.000" r="2.880"/><circle cx="486.000" cy="486.000" r="2.880"/><circle cx="486.000" cy="498.000" r="2.880"/><circle cx="486.000" cy="510.000" r="2.880"/><circle cx="498.000" cy="486.000" r="2.880"/><circle cx="498.000" cy="498.000" r="2.880"/><circle cx="498.000" cy="510.000" r="2.880"/><circle cx="486.000" cy="522.000" r="2.880"/><circle cx="498.000" cy="522.000" r="2.880"/><circle cx="510.000" cy="486.000" r="2.880"/><circle cx="510.000" cy="498.000" r="2.880"/><circle cx="510.000" cy="510.000" r="2.880"/><circle cx="522.000" cy="498.000" r="2.880"/><circle cx="522.000" cy="510.000" r="2.880"/><circle cx="510.000" cy="522.000" r="2.880"/><circle cx="522.000" cy="522.000" r="2.880"/><circle cx="546.000" cy="510.000" r="2.880"/><circle cx="534.000" cy="522.000" r="2.880"/><circle cx="546.000" cy="522.000" r="2.880"/><circle cx="558.000" cy="486.000" r="2.880"/><circle cx="558.000" cy="498.000" r="2.880"/><circle cx="558.000" cy="510.000" r="2.880"/><circle cx="582.000" cy="486.000" r="2.880"/><circle cx="594.000" cy="498.000" r="2.880"/><circle cx="594.000" cy="510.000" r="2.880"/><circle cx="594.000" cy="522.000" r="2.880"/><circle cx="606.000" cy="510.000" r="2.880"/><circle cx="606.000" cy="522.000" r="2.880"/><circle cx="618.000" cy="522.000" r="2.880"/><circle cx="630.000" cy="498.000" r="2.880"/><circle cx="630.000" cy="510.000" r="2.880"/><circle cx="642.000" cy="486.000" r="2.880"/><circle cx="642.000" cy="498.000" r="2.880"/><circle cx="642.000" cy="510.000" r="2.880"/><circle cx="630.000" cy="522.000" r="2.880"/><circle cx="642.000" cy="522.000" r="2.880"/><circle cx="654.000" cy="486.000" r="2.880"/><circle cx="654.000" cy="498.000" r="2.880"/><circle cx="654.000" cy="510.000" r="2.880"/><circle cx="666.000" cy="486.000" r="2.880"/><circle cx="666.000" cy="498.000" r="2.880"/><circle cx="666.000" cy="510.000" r="2.880"/><circle cx="654.000" cy="522.000" r="2.880"/><circle cx="678.000" cy="486.000" r="2.880"/><circle cx="678.000" cy="498.000" r="2.880"/><circle cx="678.000" cy="510.000" r="2.880"/><circle cx="690.000" cy="498.000" r="2.880"/><circle cx="690.000" cy="510.000" r="2.880"/><circle cx="678.000" cy="522.000" r="2.880"/><circle cx="690.000" cy="522.000" r="2.880"/><circle cx="702.000" cy="498.000" r="2.880"/><circle cx="702.000" cy="510.000" r="2.880"/><circle cx="714.000" cy="510.000" r="2.880"/><circle cx="702.000" cy="522.000" r="2.880"/><circle cx="714.000" cy="522.000" r="2.880"/><circle cx="726.000" cy="522.000" r="2.880"/><circle cx="738.000" cy="522.000" r="2.880"/><circle cx="870.000" cy="486.000" r="2.880"/><circle cx="882.000" cy="486.000" r="2.880"/><circle cx="882.000" cy="498.000" r="2.880"/><circle cx="894.000" cy="486.000" r="2.880"/><circle cx="894.000" cy="498.000" r="2.880"/><circle cx="894.000" cy="510.000" r="2.880"/><circle cx="906.000" cy="498.000" r="2.880"/><circle cx="906.000" cy="510.000" r="2.880"/><circle cx="906.000" cy="522.000" r="2.880"/><circle cx="918.000" cy="510.000" r="2.880"/><circle cx="918.000" cy="522.000" r="2.880"/><circle cx="930.000" cy="522.000" r="2.880"/><circle cx="138.000" cy="570.000" r="2.880"/><circle cx="150.000" cy="570.000" r="2.880"/><circle cx="162.000" cy="570.000" r="2.880"/><circle cx="174.000" cy="558.000" r="2.880"/><circle cx="186.000" cy="558.000" r="2.880"/><circle cx="174.000" cy="570.000" r="2.880"/><circle cx="186.000" cy="570.000" r="2.880"/><circle cx="198.000" cy="546.000" r="2.880"/><circle cx="198.000" cy="558.000" r="2.880"/><circle cx="210.000" cy="534.000" r="2.880"/><circle cx="210.000" cy="546.000" r="2.880"/><circle cx="222.000" cy="534.000" r="2.880"/><circle cx="222.000" cy="546.000" r="2.880"/><circle cx="234.000" cy="534.000" r="2.880"/><circle cx="366.000" cy="570.000" r="2.880"/><circle cx="378.000" cy="570.000" r="2.880"/><circle cx="402.000" cy="534.000" r="2.880"/><circle cx="402.000" cy="546.000" r="2.880"/><circle cx="390.000" cy="570.000" r="2.880"/><circle cx="402.000" cy="570.000" r="2.880"/><circle cx="414.000" cy="534.000" r="2.880"/><circle cx="414.000" cy="546.000" r="2.880"/><circle cx="426.000" cy="534.000" r="2.880"/><circle cx="426.000" cy="546.000" r="2.880"/><circle cx="414.000" cy="570.000" r="2.880"/><circle cx="438.000" cy="534.000" r="2.880"/><circle cx="438.000" cy="546.000" r="2.880"/><circle cx="498.000" cy="558.000" r="2.880"/><circle cx="486.000" cy="570.000" r="2.880"/><circle cx="498.000" cy="570.000" r="2.880"/><circle cx="510.000" cy="546.000" r="2.880"/><circle cx="510.000" cy="558.000" r="2.880"/><circle cx="522.000" cy="534.000" r="2.880"/><circle cx="522.000" cy="546.000" r="2.880"/><circle cx="522.000" cy="558.000" r="2.880"/><circle cx="510.000" cy="570.000" r="2.880"/><circle cx="534.000" cy="534.000" r="2.880"/><circle cx="534.000" cy="546.000" r="2.880"/><circle cx="534.000" cy="558.000" r="2.880"/><circle cx="546.000" cy="534.000" r="2.880"/><circle cx="546.000" cy="546.000" r="2.880"/><circle cx="546.000" cy="558.000" r="2.880"/><circle cx="558.000" cy="546.000" r="2.880"/><circle cx="558.000" cy="558.000" r="2.880"/><circle cx="558.000" cy="570.000" r="2.880"/><circle cx="570.000" cy="570.000" r="2.880"/><circle cx="582.000" cy="558.000" r="2.880"/><circle cx="594.000" cy="534.000" r="2.880"/><circle cx="594.000" cy="546.000" r="2.880"/><circle cx="594.000" cy="558.000" r="2.880"/><circle cx="582.000" cy="570.000" r="2.880"/><circle cx="594.000" cy="570.000" r="2.880"/><circle cx="606.000" cy="534.000" r="2.880"/><circle cx="606.000" cy="546.000" r="2.880"/><circle cx="606.000" cy="558.000" r="2.880"/><circle cx="618.000" cy="534.000" r="2.880"/><circle cx="618.000" cy="546.000" r="2.880"/><circle cx="630.000" cy="534.000" r="2.880"/><circle cx="630.000" cy="558.000" r="2.880"/><circle cx="642.000" cy="546.000" r="2.880"/><circle cx="642.000" cy="558.000" r="2.880"/><circle cx="642.000" cy="570.000" r="2.880"/><circle cx="654.000" cy="558.000" r="2.880"/><circle cx="654.000" cy="570.000" r="2.880"/><circle cx="666.000" cy="570.000" r="2.880"/><circle cx="702.000" cy="534.000" r="2.880"/><circle cx="714.000" cy="534.000" r="2.880"/><circle cx="714.000" cy="546.000" r="2.880"/><circle cx="726.000" cy="534.000" r="2.880"/><circle cx="726.000" cy="546.000" r="2.880"/><circle cx="726.000" cy="558.000" r="2.880"/><circle cx="738.000" cy="534.000" r="2.880"/><circle cx="738.000" cy="546.000" r="2.880"/><circle cx="726.000" cy="570.000" r="2.880"/><circle cx="738.000" cy="570.000" r="2.880"/><circle cx="750.000" cy="546.000" r="2.880"/><circle cx="750.000" cy="570.000" r="2.880"/><circle cx="762.000" cy="570.000" r="2.880"/><circle cx="774.000" cy="570.000" r="2.880"/><circle cx="786.000" cy="570.000" r="2.880"/><circle cx="918.000" cy="534.000" r="2.880"/><circle cx="930.000" cy="534.000" r="2.880"/><circle cx="930.000" cy="546.000" r="2.880"/><circle cx="942.000" cy="534.000" r="2.880"/><circle cx="942.000" cy="546.000" r="2.880"/><circle cx="954.000" cy="546.000" r="2.880"/><circle cx="954.000" cy="558.000" r="2.880"/><circle cx="966.000" cy="558.000" r="2.880"/><circle cx="978.000" cy="558.000" r="2.880"/><circle cx="966.000" cy="570.000" r="2.880"/><circle cx="978.000" cy="570.000" r="2.880"/><circle cx="990.000" cy="570.000" r="2.880"/><circle cx="1002.000" cy="570.000" r="2.880"/><circle cx="1014.000" cy="570.000" r="2.880"/><circle cx="102.000" cy="582.000" r="2.880"/><circle cx="114.000" cy="582.000" r="2.880"/><circle cx="126.000" cy="582.000" r="2.880"/><circle cx="138.000" cy="582.000" r="2.880"/><circle cx="138.000" cy="594.000" r="2.880"/><circle cx="150.000" cy="582.000" r="2.880"/><circle cx="150.000" cy="594.000" r="2.880"/><circle cx="162.000" cy="582.000" r="2.880"/><circle cx="162.000" cy="594.000" r="2.880"/><circle cx="162.000" cy="606.000" r="2.880"/><circle cx="174.000" cy="594.000" r="2.880"/><circle cx="174.000" cy="606.000" r="2.880"/><circle cx="186.000" cy="606.000" r="2.880"/><circle cx="186.000" cy="618.000" r="2.880"/><circle cx="198.000" cy="606.000" r="2.880"/><circle cx="198.000" cy="618.000" r="2.880"/><circle cx="210.000" cy="618.000" r="2.880"/><circle cx="222.000" cy="618.000" r="2.880"/><circle cx="318.000" cy="582.000" r="2.880"/><circle cx="330.000" cy="582.000" r="2.880"/><circle cx="342.000" cy="582.000" r="2.880"/><circle cx="354.000" cy="582.000" r="2.880"/><circle cx="354.000" cy="594.000" r="2.880"/><circle cx="366.000" cy="582.000" r="2.880"/><circle cx="366.000" cy="594.000" r="2.880"/><circle cx="378.000" cy="582.000" r="2.880"/><circle cx="378.000" cy="594.000" r="2.880"/><circle cx="390.000" cy="582.000" r="2.880"/><circle cx="390.000" cy="594.000" r="2.880"/><circle cx="402.000" cy="582.000" r="2.880"/><circle cx="402.000" cy="594.000" r="2.880"/><circle cx="402.000" cy="618.000" r="2.880"/><circle cx="414.000" cy="582.000" r="2.880"/><circle cx="414.000" cy="594.000" r="2.880"/><circle cx="426.000" cy="582.000" r="2.880"/><circle cx="426.000" cy="594.000" r="2.880"/><circle cx="414.000" cy="618.000" r="2.880"/><circle cx="426.000" cy="618.000" r="2.880"/><circle cx="438.000" cy="582.000" r="2.880"/><circle cx="450.000" cy="582.000" r="2.880"/><circle cx="474.000" cy="594.000" r="2.880"/><circle cx="486.000" cy="594.000" r="2.880"/><circle cx="486.000" cy="606.000" r="2.880"/><circle cx="498.000" cy="594.000" r="2.880"/><circle cx="498.000" cy="606.000" r="2.880"/><circle cx="498.000" cy="618.000" r="2.880"/><circle cx="510.000" cy="606.000" r="2.880"/><circle cx="510.000" cy="618.000" r="2.880"/><circle cx="522.000" cy="618.000" r="2.880"/><circle cx="534.000" cy="606.000" r="2.880"/><circle cx="546.000" cy="606.000" r="2.880"/><circle cx="534.000" cy="618.000" r="2.880"/><circle cx="546.000" cy="618.000" r="2.880"/><circle cx="558.000" cy="582.000" r="2.880"/><circle cx="558.000" cy="594.000" r="2.880"/><circle cx="558.000" cy="606.000" r="2.880"/><circle cx="570.000" cy="582.000" r="2.880"/><circle cx="570.000" cy="594.000" r="2.880"/><circle cx="558.000" cy="618.000" r="2.880"/><circle cx="582.000" cy="582.000" r="2.880"/><circle cx="582.000" cy="594.000" r="2.880"/><circle cx="582.000" cy="606.000" r="2.880"/><circle cx="594.000" cy="594.000" r="2.880"/><circle cx="594.000" cy="606.000" r="2.880"/><circle cx="594.000" cy="618.000" r="2.880"/><circle cx="606.000" cy="606.000" r="2.880"/><circle cx="618.000" cy="606.000" r="2.880"/><circle cx="606.000" cy="618.000" r="2.880"/><circle cx="618.000" cy="618.000" r="2.880"/><circle cx="630.000" cy="606.000" r="2.880"/><circle cx="642.000" cy="606.000" r="2.880"/><circle cx="630.000" cy="618.000" r="2.880"/><circle cx="642.000" cy="618.000" r="2.880"/><circle cx="654.000" cy="594.000" r="2.880"/><circle cx="654.000" cy="606.000" r="2.880"/><circle cx="666.000" cy="594.000" r="2.880"/><circle cx="690.000" cy="582.000" r="2.880"/><circle cx="702.000" cy="582.000" r="2.880"/><circle cx="714.000" cy="582.000" r="2.880"/><circle cx="714.000" cy="594.000" r="2.880"/><circle cx="714.000" cy="618.000" r="2.880"/><circle cx="726.000" cy="582.000" r="2.880"/><circle cx="726.000" cy="594.000" r="2.880"/><circle cx="738.000" cy="582.000" r="2.880"/><circle cx="738.000" cy="594.000" r="2.880"/><circle cx="726.000" cy="618.000" r="2.880"/><circle cx="738.000" cy="618.000" r="2.880"/><circle cx="750.000" cy="582.000" r="2.880"/><circle cx="750.000" cy="594.000" r="2.880"/><circle cx="762.000" cy="582.000" r="2.880"/><circle cx="762.000" cy="594.000" r="2.880"/><circle cx="750.000" cy="618.000" r="2.880"/><circle cx="774.000" cy="582.000" r="2.880"/><circle cx="774.000" cy="594.000" r="2.880"/><circle cx="786.000" cy="582.000" r="2.880"/><circle cx="786.000" cy="594.000" r="2.880"/><circle cx="798.000" cy="582.000" r="2.880"/><circle cx="798.000" cy="594.000" r="2.880"/><circle cx="810.000" cy="582.000" r="2.880"/><circle cx="822.000" cy="582.000" r="2.880"/><circle cx="834.000" cy="582.000" r="2.880"/><circle cx="930.000" cy="618.000" r="2.880"/><circle cx="954.000" cy="606.000" r="2.880"/><circle cx="942.000" cy="618.000" r="2.880"/><circle cx="954.000" cy="618.000" r="2.880"/><circle cx="966.000" cy="594.000" r="2.880"/><circle cx="966.000" cy="606.000" r="2.880"/><circle cx="978.000" cy="594.000" r="2.880"/><circle cx="978.000" cy="606.000" r="2.880"/><circle cx="990.000" cy="582.000" r="2.880"/><circle cx="990.000" cy="594.000" r="2.880"/><circle cx="1002.000" cy="582.000" r="2.880"/><circle cx="1002.000" cy="594.000" r="2.880"/><circle cx="1014.000" cy="582.000" r="2.880"/><circle cx="1014.000" cy="594.000" r="2.880"/><circle cx="1026.000" cy="582.000" r="2.880"/><circle cx="1038.000" cy="582.000" r="2.880"/><circle cx="1050.000" cy="582.000" r="2.880"/><circle cx="210.000" cy="630.000" r="2.880"/><circle cx="222.000" cy="630.000" r="2.880"/><circle cx="222.000" cy="642.000" r="2.880"/><circle cx="234.000" cy="630.000" r="2.880"/><circle cx="234.000" cy="642.000" r="2.880"/><circle cx="234.000" cy="654.000" r="2.880"/><circle cx="246.000" cy="642.000" r="2.880"/><circle cx="246.000" cy="654.000" r="2.880"/><circle cx="258.000" cy="654.000" r="2.880"/><circle cx="246.000" cy="666.000" r="2.880"/><circle cx="258.000" cy="666.000" r="2.880"/><circle cx="270.000" cy="666.000" r="2.880"/><circle cx="402.000" cy="630.000" r="2.880"/><circle cx="414.000" cy="630.000" r="2.880"/><circle cx="414.000" cy="642.000" r="2.880"/><circle cx="426.000" cy="630.000" r="2.880"/><circle cx="426.000" cy="642.000" r="2.880"/><circle cx="426.000" cy="654.000" r="2.880"/><circle cx="438.000" cy="630.000" r="2.880"/><circle cx="438.000" cy="642.000" r="2.880"/><circle cx="438.000" cy="654.000" r="2.880"/><circle cx="450.000" cy="642.000" r="2.880"/><circle cx="450.000" cy="654.000" r="2.880"/><circle cx="438.000" cy="666.000" r="2.880"/><circle cx="450.000" cy="666.000" r="2.880"/><circle cx="462.000" cy="642.000" r="2.880"/><circle cx="462.000" cy="654.000" r="2.880"/><circle cx="474.000" cy="642.000" r="2.880"/><circle cx="474.000" cy="654.000" r="2.880"/><circle cx="462.000" cy="666.000" r="2.880"/><circle cx="474.000" cy="666.000" r="2.880"/><circle cx="486.000" cy="642.000" r="2.880"/><circle cx="486.000" cy="654.000" r="2.880"/><circle cx="498.000" cy="642.000" r="2.880"/><circle cx="498.000" cy="654.000" r="2.880"/><circle cx="486.000" cy="666.000" r="2.880"/><circle cx="498.000" cy="666.000" r="2.880"/><circle cx="510.000" cy="630.000" r="2.880"/><circle cx="510.000" cy="642.000" r="2.880"/><circle cx="510.000" cy="654.000" r="2.880"/><circle cx="522.000" cy="630.000" r="2.880"/><circle cx="522.000" cy="642.000" r="2.880"/><circle cx="522.000" cy="654.000" r="2.880"/><circle cx="510.000" cy="666.000" r="2.880"/><circle cx="522.000" cy="666.000" r="2.880"/><circle cx="534.000" cy="630.000" r="2.880"/><circle cx="534.000" cy="642.000" r="2.880"/><circle cx="546.000" cy="630.000" r="2.880"/><circle cx="546.000" cy="642.000" r="2.880"/><circle cx="546.000" cy="654.000" r="2.880"/><circle cx="546.000" cy="666.000" r="2.880"/><circle cx="558.000" cy="666.000" r="2.880"/><circle cx="594.000" cy="666.000" r="2.880"/><circle cx="606.000" cy="630.000" r="2.880"/><circle cx="606.000" cy="654.000" r="2.880"/><circle cx="618.000" cy="630.000" r="2.880"/><circle cx="618.000" cy="642.000" r="2.880"/><circle cx="606.000" cy="666.000" r="2.880"/><circle cx="630.000" cy="630.000" r="2.880"/><circle cx="630.000" cy="642.000" r="2.880"/><circle cx="630.000" cy="654.000" r="2.880"/><circle cx="642.000" cy="642.000" r="2.880"/><circle cx="642.000" cy="654.000" r="2.880"/><circle cx="630.000" cy="666.000" r="2.880"/><circle cx="642.000" cy="666.000" r="2.880"/><circle cx="654.000" cy="642.000" r="2.880"/><circle cx="654.000" cy="654.000" r="2.880"/><circle cx="666.000" cy="642.000" r="2.880"/><circle cx="666.000" cy="654.000" r="2.880"/><circle cx="654.000" cy="666.000" r="2.880"/><circle cx="666.000" cy="666.000" r="2.880"/><circle cx="678.000" cy="654.000" r="2.880"/><circle cx="690.000" cy="642.000" r="2.880"/><circle cx="690.000" cy="654.000" r="2.880"/><circle cx="678.000" cy="666.000" r="2.880"/><circle cx="690.000" cy="666.000" r="2.880"/><circle cx="702.000" cy="630.000" r="2.880"/><circle cx="702.000" cy="642.000" r="2.880"/><circle cx="702.000" cy="654.000" r="2.880"/><circle cx="714.000" cy="630.000" r="2.880"/><circle cx="714.000" cy="642.000" r="2.880"/><circle cx="714.000" cy="654.000" r="2.880"/><circle cx="702.000" cy="666.000" r="2.880"/><circle cx="726.000" cy="630.000" r="2.880"/><circle cx="726.000" cy="642.000" r="2.880"/><circle cx="726.000" cy="654.000" r="2.880"/><circle cx="738.000" cy="630.000" r="2.880"/><circle cx="738.000" cy="642.000" r="2.880"/><circle cx="750.000" cy="630.000" r="2.880"/><circle cx="882.000" cy="666.000" r="2.880"/><circle cx="894.000" cy="654.000" r="2.880"/><circle cx="906.000" cy="642.000" r="2.880"/><circle cx="906.000" cy="654.000" r="2.880"/><circle cx="894.000" cy="666.000" r="2.880"/><circle cx="906.000" cy="666.000" r="2.880"/><circle cx="918.000" cy="630.000" r="2.880"/><circle cx="918.000" cy="642.000" r="2.880"/><circle cx="918.000" cy="654.000" r="2.880"/><circle cx="930.000" cy="630.000" r="2.880"/><circle cx="930.000" cy="642.000" r="2.880"/><circle cx="942.000" cy="630.000" r="2.880"/><circle cx="258.000" cy="678.000" r="2.880"/><circle cx="270.000" cy="678.000" r="2.880"/><circle cx="270.000" cy="690.000" r="2.880"/><circle cx="282.000" cy="690.000" r="2.880"/><circle cx="282.000" cy="702.000" r="2.880"/><circle cx="294.000" cy="690.000" r="2.880"/><circle cx="294.000" cy="702.000" r="2.880"/><circle cx="306.000" cy="702.000" r="2.880"/><circle cx="294.000" cy="714.000" r="2.880"/><circle cx="306.000" cy="714.000" r="2.880"/><circle cx="318.000" cy="714.000" r="2.880"/><circle cx="426.000" cy="714.000" r="2.880"/><circle cx="438.000" cy="702.000" r="2.880"/><circle cx="450.000" cy="702.000" r="2.880"/><circle cx="438.000" cy="714.000" r="2.880"/><circle cx="450.000" cy="714.000" r="2.880"/><circle cx="462.000" cy="690.000" r="2.880"/><circle cx="462.000" cy="702.000" r="2.880"/><circle cx="474.000" cy="678.000" r="2.880"/><circle cx="474.000" cy="690.000" r="2.880"/><circle cx="474.000" cy="702.000" r="2.880"/><circle cx="462.000" cy="714.000" r="2.880"/><circle cx="486.000" cy="678.000" r="2.880"/><circle cx="486.000" cy="690.000" r="2.880"/><circle cx="486.000" cy="702.000" r="2.880"/><circle cx="498.000" cy="678.000" r="2.880"/><circle cx="498.000" cy="690.000" r="2.880"/><circle cx="498.000" cy="702.000" r="2.880"/><circle cx="486.000" cy="714.000" r="2.880"/><circle cx="498.000" cy="714.000" r="2.880"/><circle cx="510.000" cy="678.000" r="2.880"/><circle cx="510.000" cy="690.000" r="2.880"/><circle cx="510.000" cy="702.000" r="2.880"/><circle cx="510.000" cy="714.000" r="2.880"/><circle cx="546.000" cy="678.000" r="2.880"/><circle cx="558.000" cy="678.000" r="2.880"/><circle cx="558.000" cy="690.000" r="2.880"/><circle cx="558.000" cy="702.000" r="2.880"/><circle cx="570.000" cy="678.000" r="2.880"/><circle cx="570.000" cy="690.000" r="2.880"/><circle cx="570.000" cy="702.000" r="2.880"/><circle cx="570.000" cy="714.000" r="2.880"/><circle cx="582.000" cy="678.000" r="2.880"/><circle cx="582.000" cy="690.000" r="2.880"/><circle cx="582.000" cy="702.000" r="2.880"/><circle cx="594.000" cy="678.000" r="2.880"/><circle cx="594.000" cy="690.000" r="2.880"/><circle cx="582.000" cy="714.000" r="2.880"/><circle cx="606.000" cy="678.000" r="2.880"/><circle cx="630.000" cy="678.000" r="2.880"/><circle cx="642.000" cy="678.000" r="2.880"/><circle cx="642.000" cy="690.000" r="2.880"/><circle cx="642.000" cy="702.000" r="2.880"/><circle cx="630.000" cy="714.000" r="2.880"/><circle cx="642.000" cy="714.000" r="2.880"/><circle cx="654.000" cy="678.000" r="2.880"/><circle cx="654.000" cy="690.000" r="2.880"/><circle cx="654.000" cy="702.000" r="2.880"/><circle cx="666.000" cy="678.000" r="2.880"/><circle cx="666.000" cy="690.000" r="2.880"/><circle cx="654.000" cy="714.000" r="2.880"/><circle cx="678.000" cy="678.000" r="2.880"/><circle cx="678.000" cy="690.000" r="2.880"/><circle cx="678.000" cy="702.000" r="2.880"/><circle cx="690.000" cy="690.000" r="2.880"/><circle cx="690.000" cy="702.000" r="2.880"/><circle cx="678.000" cy="714.000" r="2.880"/><circle cx="690.000" cy="714.000" r="2.880"/><circle cx="702.000" cy="702.000" r="2.880"/><circle cx="714.000" cy="702.000" r="2.880"/><circle cx="702.000" cy="714.000" r="2.880"/><circle cx="714.000" cy="714.000" r="2.880"/><circle cx="726.000" cy="714.000" r="2.880"/><circle cx="834.000" cy="714.000" r="2.880"/><circle cx="846.000" cy="702.000" r="2.880"/><circle cx="858.000" cy="690.000" r="2.880"/><circle cx="858.000" cy="702.000" r="2.880"/><circle cx="846.000" cy="714.000" r="2.880"/><circle cx="858.000" cy="714.000" r="2.880"/><circle cx="870.000" cy="678.000" r="2.880"/><circle cx="870.000" cy="690.000" r="2.880"/><circle cx="870.000" cy="702.000" r="2.880"/><circle cx="882.000" cy="678.000" r="2.880"/><circle cx="882.000" cy="690.000" r="2.880"/><circle cx="894.000" cy="678.000" r="2.880"/><circle cx="306.000" cy="726.000" r="2.880"/><circle cx="318.000" cy="726.000" r="2.880"/><circle cx="330.000" cy="726.000" r="2.880"/><circle cx="330.000" cy="738.000" r="2.880"/><circle cx="342.000" cy="726.000" r="2.880"/><circle cx="342.000" cy="738.000" r="2.880"/><circle cx="354.000" cy="726.000" r="2.880"/><circle cx="354.000" cy="738.000" r="2.880"/><circle cx="366.000" cy="738.000" r="2.880"/><circle cx="378.000" cy="726.000" r="2.880"/><circle cx="378.000" cy="738.000" r="2.880"/><circle cx="390.000" cy="726.000" r="2.880"/><circle cx="390.000" cy="738.000" r="2.880"/><circle cx="402.000" cy="726.000" r="2.880"/><circle cx="402.000" cy="738.000" r="2.880"/><circle cx="414.000" cy="726.000" r="2.880"/><circle cx="426.000" cy="726.000" r="2.880"/><circle cx="426.000" cy="762.000" r="2.880"/><circle cx="438.000" cy="738.000" r="2.880"/><circle cx="438.000" cy="750.000" r="2.880"/><circle cx="450.000" cy="726.000" r="2.880"/><circle cx="450.000" cy="738.000" r="2.880"/><circle cx="438.000" cy="762.000" r="2.880"/><circle cx="462.000" cy="726.000" r="2.880"/><circle cx="498.000" cy="726.000" r="2.880"/><circle cx="498.000" cy="738.000" r="2.880"/><circle cx="510.000" cy="726.000" r="2.880"/><circle cx="510.000" cy="738.000" r="2.880"/><circle cx="510.000" cy="750.000" r="2.880"/><circle cx="522.000" cy="726.000" r="2.880"/><circle cx="522.000" cy="738.000" r="2.880"/><circle cx="522.000" cy="750.000" r="2.880"/><circle cx="510.000" cy="762.000" r="2.880"/><circle cx="522.000" cy="762.000" r="2.880"/><circle cx="534.000" cy="738.000" r="2.880"/><circle cx="534.000" cy="750.000" r="2.880"/><circle cx="546.000" cy="750.000" r="2.880"/><circle cx="534.000" cy="762.000" r="2.880"/><circle cx="546.000" cy="762.000" r="2.880"/><circle cx="558.000" cy="726.000" r="2.880"/><circle cx="558.000" cy="738.000" r="2.880"/><circle cx="570.000" cy="726.000" r="2.880"/><circle cx="570.000" cy="738.000" r="2.880"/><circle cx="570.000" cy="750.000" r="2.880"/><circle cx="558.000" cy="762.000" r="2.880"/><circle cx="570.000" cy="762.000" r="2.880"/><circle cx="582.000" cy="726.000" r="2.880"/><circle cx="582.000" cy="738.000" r="2.880"/><circle cx="582.000" cy="750.000" r="2.880"/><circle cx="582.000" cy="762.000" r="2.880"/><circle cx="606.000" cy="750.000" r="2.880"/><circle cx="618.000" cy="738.000" r="2.880"/><circle cx="618.000" cy="750.000" r="2.880"/><circle cx="606.000" cy="762.000" r="2.880"/><circle cx="618.000" cy="762.000" r="2.880"/><circle cx="630.000" cy="726.000" r="2.880"/><circle cx="630.000" cy="738.000" r="2.880"/><circle cx="630.000" cy="750.000" r="2.880"/><circle cx="642.000" cy="726.000" r="2.880"/><circle cx="642.000" cy="738.000" r="2.880"/><circle cx="642.000" cy="750.000" r="2.880"/><circle cx="630.000" cy="762.000" r="2.880"/><circle cx="642.000" cy="762.000" r="2.880"/><circle cx="654.000" cy="726.000" r="2.880"/><circle cx="654.000" cy="738.000" r="2.880"/><circle cx="690.000" cy="726.000" r="2.880"/><circle cx="702.000" cy="726.000" r="2.880"/><circle cx="702.000" cy="738.000" r="2.880"/><circle cx="702.000" cy="750.000" r="2.880"/><circle cx="714.000" cy="738.000" r="2.880"/><circle cx="714.000" cy="750.000" r="2.880"/><circle cx="714.000" cy="762.000" r="2.880"/><circle cx="726.000" cy="726.000" r="2.880"/><circle cx="738.000" cy="726.000" r="2.880"/><circle cx="750.000" cy="726.000" r="2.880"/><circle cx="750.000" cy="738.000" r="2.880"/><circle cx="762.000" cy="726.000" r="2.880"/><circle cx="762.000" cy="738.000" r="2.880"/><circle cx="774.000" cy="726.000" r="2.880"/><circle cx="774.000" cy="738.000" r="2.880"/><circle cx="786.000" cy="738.000" r="2.880"/><circle cx="798.000" cy="726.000" r="2.880"/><circle cx="798.000" cy="738.000" r="2.880"/><circle cx="810.000" cy="726.000" r="2.880"/><circle cx="810.000" cy="738.000" r="2.880"/><circle cx="822.000" cy="726.000" r="2.880"/><circle cx="822.000" cy="738.000" r="2.880"/><circle cx="834.000" cy="726.000" r="2.880"/><circle cx="846.000" cy="726.000" r="2.880"/><circle cx="414.000" cy="798.000" r="2.880"/><circle cx="426.000" cy="774.000" r="2.880"/><circle cx="426.000" cy="786.000" r="2.880"/><circle cx="426.000" cy="798.000" r="2.880"/><circle cx="426.000" cy="810.000" r="2.880"/><circle cx="438.000" cy="774.000" r="2.880"/><circle cx="438.000" cy="786.000" r="2.880"/><circle cx="438.000" cy="810.000" r="2.880"/><circle cx="522.000" cy="774.000" r="2.880"/><circle cx="534.000" cy="774.000" r="2.880"/><circle cx="534.000" cy="786.000" r="2.880"/><circle cx="546.000" cy="774.000" r="2.880"/><circle cx="546.000" cy="786.000" r="2.880"/><circle cx="546.000" cy="798.000" r="2.880"/><circle cx="558.000" cy="786.000" r="2.880"/><circle cx="570.000" cy="774.000" r="2.880"/><circle cx="570.000" cy="786.000" r="2.880"/><circle cx="570.000" cy="798.000" r="2.880"/><circle cx="558.000" cy="810.000" r="2.880"/><circle cx="570.000" cy="810.000" r="2.880"/><circle cx="582.000" cy="774.000" r="2.880"/><circle cx="582.000" cy="786.000" r="2.880"/><circle cx="582.000" cy="798.000" r="2.880"/><circle cx="594.000" cy="774.000" r="2.880"/><circle cx="594.000" cy="798.000" r="2.880"/><circle cx="582.000" cy="810.000" r="2.880"/><circle cx="606.000" cy="774.000" r="2.880"/><circle cx="606.000" cy="786.000" r="2.880"/><circle cx="618.000" cy="774.000" r="2.880"/><circle cx="630.000" cy="774.000" r="2.880"/><circle cx="714.000" cy="774.000" r="2.880"/><circle cx="714.000" cy="786.000" r="2.880"/><circle cx="714.000" cy="798.000" r="2.880"/><circle cx="714.000" cy="810.000" r="2.880"/><circle cx="726.000" cy="774.000" r="2.880"/><circle cx="726.000" cy="786.000" r="2.880"/><circle cx="726.000" cy="798.000" r="2.880"/><circle cx="726.000" cy="810.000" r="2.880"/><circle cx="426.000" cy="822.000" r="2.880"/><circle cx="426.000" cy="834.000" r="2.880"/><circle cx="426.000" cy="846.000" r="2.880"/><circle cx="438.000" cy="822.000" r="2.880"/><circle cx="438.000" cy="834.000" r="2.880"/><circle cx="438.000" cy="846.000" r="2.880"/><circle cx="438.000" cy="858.000" r="2.880"/><circle cx="450.000" cy="858.000" r="2.880"/><circle cx="570.000" cy="822.000" r="2.880"/><circle cx="570.000" cy="834.000" r="2.880"/><circle cx="570.000" cy="846.000" r="2.880"/><circle cx="570.000" cy="858.000" r="2.880"/><circle cx="582.000" cy="822.000" r="2.880"/><circle cx="582.000" cy="834.000" r="2.880"/><circle cx="582.000" cy="846.000" r="2.880"/><circle cx="582.000" cy="858.000" r="2.880"/><circle cx="702.000" cy="846.000" r="2.880"/><circle cx="714.000" cy="822.000" r="2.880"/><circle cx="714.000" cy="834.000" r="2.880"/><circle cx="714.000" cy="846.000" r="2.880"/><circle cx="702.000" cy="858.000" r="2.880"/><circle cx="714.000" cy="858.000" r="2.880"/><circle cx="726.000" cy="822.000" r="2.880"/><circle cx="726.000" cy="834.000" r="2.880"/><circle cx="438.000" cy="870.000" r="2.880"/><circle cx="450.000" cy="870.000" r="2.880"/><circle cx="450.000" cy="882.000" r="2.880"/><circle cx="462.000" cy="870.000" r="2.880"/><circle cx="462.000" cy="882.000" r="2.880"/><circle cx="462.000" cy="894.000" r="2.880"/><circle cx="474.000" cy="894.000" r="2.880"/><circle cx="474.000" cy="906.000" r="2.880"/><circle cx="486.000" cy="906.000" r="2.880"/><circle cx="570.000" cy="870.000" r="2.880"/><circle cx="570.000" cy="882.000" r="2.880"/><circle cx="582.000" cy="870.000" r="2.880"/><circle cx="666.000" cy="894.000" r="2.880"/><circle cx="666.000" cy="906.000" r="2.880"/><circle cx="678.000" cy="882.000" r="2.880"/><circle cx="678.000" cy="894.000" r="2.880"/><circle cx="690.000" cy="870.000" r="2.880"/><circle cx="690.000" cy="882.000" r="2.880"/><circle cx="690.000" cy="894.000" r="2.880"/><circle cx="678.000" cy="906.000" r="2.880"/><circle cx="702.000" cy="870.000" r="2.880"/><circle cx="702.000" cy="882.000" r="2.880"/><circle cx="474.000" cy="918.000" r="2.880"/><circle cx="486.000" cy="918.000" r="2.880"/><circle cx="486.000" cy="930.000" r="2.880"/><circle cx="486.000" cy="942.000" r="2.880"/><circle cx="498.000" cy="918.000" r="2.880"/><circle cx="498.000" cy="930.000" r="2.880"/><circle cx="498.000" cy="942.000" r="2.880"/><circle cx="486.000" cy="954.000" r="2.880"/><circle cx="498.000" cy="954.000" r="2.880"/><circle cx="510.000" cy="930.000" r="2.880"/><circle cx="510.000" cy="942.000" r="2.880"/><circle cx="522.000" cy="942.000" r="2.880"/><circle cx="510.000" cy="954.000" r="2.880"/><circle cx="522.000" cy="954.000" r="2.880"/><circle cx="618.000" cy="954.000" r="2.880"/><circle cx="630.000" cy="942.000" r="2.880"/><circle cx="642.000" cy="930.000" r="2.880"/><circle cx="642.000" cy="942.000" r="2.880"/><circle cx="630.000" cy="954.000" r="2.880"/><circle cx="642.000" cy="954.000" r="2.880"/><circle cx="654.000" cy="918.000" r="2.880"/><circle cx="654.000" cy="930.000" r="2.880"/><circle cx="666.000" cy="918.000" r="2.880"/><circle cx="486.000" cy="990.000" r="2.880"/><circle cx="498.000" cy="966.000" r="2.880"/><circle cx="498.000" cy="978.000" r="2.880"/><circle cx="498.000" cy="990.000" r="2.880"/><circle cx="486.000" cy="1002.000" r="2.880"/><circle cx="498.000" cy="1002.000" r="2.880"/><circle cx="510.000" cy="966.000" r="2.880"/><circle cx="510.000" cy="978.000" r="2.880"/><circle cx="510.000" cy="990.000" r="2.880"/><circle cx="522.000" cy="966.000" r="2.880"/><circle cx="522.000" cy="978.000" r="2.880"/><circle cx="510.000" cy="1002.000" r="2.880"/><circle cx="534.000" cy="966.000" r="2.880"/><circle cx="534.000" cy="978.000" r="2.880"/><circle cx="534.000" cy="990.000" r="2.880"/><circle cx="546.000" cy="978.000" r="2.880"/><circle cx="546.000" cy="990.000" r="2.880"/><circle cx="546.000" cy="1002.000" r="2.880"/><circle cx="558.000" cy="1002.000" r="2.880"/><circle cx="594.000" cy="990.000" r="2.880"/><circle cx="594.000" cy="1002.000" r="2.880"/><circle cx="606.000" cy="978.000" r="2.880"/><circle cx="606.000" cy="990.000" r="2.880"/><circle cx="618.000" cy="966.000" r="2.880"/><circle cx="618.000" cy="978.000" r="2.880"/><circle cx="618.000" cy="990.000" r="2.880"/><circle cx="606.000" cy="1002.000" r="2.880"/><circle cx="630.000" cy="966.000" r="2.880"/><circle cx="474.000" cy="1026.000" r="2.880"/><circle cx="474.000" cy="1038.000" r="2.880"/><circle cx="474.000" cy="1050.000" r="2.880"/><circle cx="486.000" cy="1014.000" r="2.880"/><circle cx="486.000" cy="1026.000" r="2.880"/><circle cx="486.000" cy="1038.000" r="2.880"/><circle cx="498.000" cy="1014.000" r="2.880"/><circle cx="498.000" cy="1026.000" r="2.880"/><circle cx="498.000" cy="1038.000" r="2.880"/><circle cx="486.000" cy="1050.000" r="2.880"/><circle cx="498.000" cy="1050.000" r="2.880"/><circle cx="510.000" cy="1014.000" r="2.880"/><circle cx="510.000" cy="1026.000" r="2.880"/><circle cx="510.000" cy="1038.000" r="2.880"/><circle cx="522.000" cy="1014.000" r="2.880"/><circle cx="522.000" cy="1026.000" r="2.880"/><circle cx="522.000" cy="1038.000" r="2.880"/><circle cx="510.000" cy="1050.000" r="2.880"/><circle cx="522.000" cy="1050.000" r="2.880"/><circle cx="546.000" cy="1014.000" r="2.880"/><circle cx="558.000" cy="1014.000" r="2.880"/><circle cx="558.000" cy="1026.000" r="2.880"/><circle cx="558.000" cy="1038.000" r="2.880"/><circle cx="570.000" cy="1026.000" r="2.880"/><circle cx="570.000" cy="1038.000" r="2.880"/><circle cx="558.000" cy="1050.000" r="2.880"/><circle cx="570.000" cy="1050.000" r="2.880"/><circle cx="582.000" cy="1026.000" r="2.880"/><circle cx="582.000" cy="1038.000" r="2.880"/><circle cx="594.000" cy="1014.000" r="2.880"/><circle cx="594.000" cy="1026.000" r="2.880"/><circle cx="594.000" cy="1038.000" r="2.880"/><circle cx="582.000" cy="1050.000" r="2.880"/><circle cx="594.000" cy="1050.000" r="2.880"/><circle cx="606.000" cy="1014.000" r="2.880"/><circle cx="486.000" cy="1062.000" r="2.880"/><circle cx="498.000" cy="1062.000" r="2.880"/><circle cx="510.000" cy="1062.000" r="2.880"/><circle cx="558.000" cy="1062.000" r="2.880"/><circle cx="558.000" cy="1074.000" r="2.880"/><circle cx="570.000" cy="1062.000" r="2.880"/><circle cx="570.000" cy="1074.000" r="2.880"/><circle cx="570.000" cy="1086.000" r="2.880"/><circle cx="558.000" cy="1098.000" r="2.880"/><circle cx="570.000" cy="1098.000" r="2.880"/><circle cx="582.000" cy="1062.000" r="2.880"/><circle cx="582.000" cy="1074.000" r="2.880"/><circle cx="582.000" cy="1086.000" r="2.880"/><circle cx="582.000" cy="1098.000" r="2.880"/><circle cx="558.000" cy="1122.000" r="2.880"/><circle cx="558.000" cy="1134.000" r="2.880"/><circle cx="570.000" cy="1110.000" r="2.880"/><circle cx="570.000" cy="1122.000" r="2.880"/><circle cx="570.000" cy="1134.000" r="2.880"/><circle cx="558.000" cy="1146.000" r="2.880"/><circle cx="570.000" cy="1146.000" r="2.880"/><circle cx="582.000" cy="1110.000" r="2.880"/><circle cx="582.000" cy="1122.000" r="2.880"/><circle cx="582.000" cy="1134.000" r="2.880"/><circle cx="582.000" cy="1146.000" r="2.880"/><circle cx="558.000" cy="1158.000" r="2.880"/><circle cx="558.000" cy="1170.000" r="2.880"/><circle cx="558.000" cy="1182.000" r="2.880"/><circle cx="570.000" cy="1158.000" r="2.880"/><circle cx="570.000" cy="1170.000" r="2.880"/><circle cx="570.000" cy="1182.000" r="2.880"/><circle cx="558.000" cy="1194.000" r="2.880"/><circle cx="570.000" cy="1194.000" r="2.880"/><circle cx="582.000" cy="1158.000" r="2.880"/><circle cx="582.000" cy="1170.000" r="2.880"/><circle cx="582.000" cy="1182.000" r="2.880"/><circle cx="594.000" cy="1170.000" r="2.880"/><circle cx="594.000" cy="1182.000" r="2.880"/><circle cx="582.000" cy="1194.000" r="2.880"/><circle cx="594.000" cy="1194.000" r="2.880"/><circle cx="546.000" cy="1206.000" r="2.880"/><circle cx="546.000" cy="1218.000" r="2.880"/><circle cx="546.000" cy="1230.000" r="2.880"/><circle cx="558.000" cy="1206.000" r="2.880"/><circle cx="558.000" cy="1218.000" r="2.880"/><circle cx="558.000" cy="1230.000" r="2.880"/><circle cx="570.000" cy="1206.000" r="2.880"/><circle cx="570.000" cy="1218.000" r="2.880"/><circle cx="570.000" cy="1230.000" r="2.880"/><circle cx="558.000" cy="1242.000" r="2.880"/><circle cx="570.000" cy="1242.000" r="2.880"/><circle cx="582.000" cy="1206.000" r="2.880"/><circle cx="582.000" cy="1218.000" r="2.880"/><circle cx="582.000" cy="1230.000" r="2.880"/><circle cx="594.000" cy="1206.000" r="2.880"/><circle cx="594.000" cy="1218.000" r="2.880"/><circle cx="594.000" cy="1230.000" r="2.880"/><circle cx="582.000" cy="1242.000" r="2.880"/><circle cx="594.000" cy="1242.000" r="2.880"/></svg>