<svg xmlns="http://www.w3.org/2000/svg" viewBox="0 0 960.000 600.000" width="100%" fill="currentColor" shape-rendering="geometricPrecision" preserveAspectRatio="xMidYMid meet"><circle cx="473.280" cy="20.400" r="1.344"/><circle cx="473.280" cy="27.600" r="1.344"/><circle cx="473.280" cy="33.200" r="1.344"/><circle cx="473.280" cy="38.800" r="1.344"/><circle cx="462.720" cy="44.400" r="1.344"/><circle cx="473.280" cy="44.400" r="1.344"/><circle cx="486.720" cy="27.600" r="1.344"/><circle cx="486.720" cy="33.200" r="1.344"/><circle cx="486.720" cy="38.800" r="1.344"/><circle cx="486.720" cy="44.400" r="1.344"/><circle cx="449.280" cy="62.800" r="1.344"/><circle cx="449.280" cy="68.400" r="1.344"/><circle cx="462.720" cy="51.600" r="1.344"/><circle cx="462.720" cy="57.200" r="1.344"/><circle cx="462.720" cy="62.800" r="1.344"/><circle cx="473.280" cy="51.600" r="1.344"/><circle cx="462.720" cy="68.400" r="1.344"/><circle cx="486.720" cy="51.600" r="1.344"/><circle cx="486.720" cy="57.200" r="1.344"/><circle cx="497.280" cy="51.600" r="1.344"/><circle cx="497.280" cy="57.200" r="1.344"/><circle cx="497.280" cy="62.800" r="1.344"/><circle cx="497.280" cy="68.400" r="1.344"/><circle cx="510.720" cy="62.800" r="1.344"/><circle cx="510.720" cy="68.400" r="1.344"/><circle cx="401.280" cy="92.400" r="1.344"/><circle cx="414.720" cy="86.800" r="1.344"/><circle cx="425.280" cy="81.200" r="1.344"/><circle cx="425.280" cy="86.800" r="1.344"/><circle cx="414.720" cy="92.400" r="1.344"/><circle cx="425.280" cy="92.400" r="1.344"/><circle cx="438.720" cy="75.600" r="1.344"/><circle cx="438.720" cy="81.200" r="1.344"/><circle cx="438.720" cy="86.800" r="1.344"/><circle cx="449.280" cy="75.600" r="1.344"/><circle cx="510.720" cy="75.600" r="1.344"/><circle cx="510.720" cy="81.200" r="1.344"/><circle cx="521.280" cy="75.600" r="1.344"/><circle cx="521.280" cy="81.200" r="1.344"/><circle cx="521.280" cy="86.800" r="1.344"/><circle cx="534.720" cy="81.200" r="1.344"/><circle cx="534.720" cy="86.800" r="1.344"/><circle cx="534.720" cy="92.400" r="1.344"/><circle cx="545.280" cy="92.400" r="1.344"/><circle cx="558.720" cy="92.400" r="1.344"/><circle cx="366.720" cy="110.800" r="1.344"/><circle cx="377.280" cy="105.200" r="1.344"/><circle cx="377.280" cy="110.800" r="1.344"/><circle cx="366.720" cy="116.400" r="1.344"/><circle cx="377.280" cy="116.400" r="1.344"/><circle cx="390.720" cy="99.600" r="1.344"/><circle cx="390.720" cy="105.200" r="1.344"/><circle cx="390.720" cy="110.800" r="1.344"/><circle cx="401.280" cy="99.600" r="1.344"/><circle cx="401.280" cy="105.200" r="1.344"/><circle cx="414.720" cy="99.600" r="1.344"/><circle cx="545.280" cy="99.600" r="1.344"/><circle cx="558.720" cy="99.600" r="1.344"/><circle cx="558.720" cy="105.200" r="1.344"/><circle cx="569.280" cy="105.200" r="1.344"/><circle cx="569.280" cy="110.800" r="1.344"/><circle cx="582.720" cy="105.200" r="1.344"/><circle cx="582.720" cy="110.800" r="1.344"/><circle cx="582.720" cy="116.400" r="1.344"/><circle cx="593.280" cy="116.400" r="1.344"/><circle cx="329.280" cy="140.400" r="1.344"/><circle cx="342.720" cy="129.200" r="1.344"/><circle cx="342.720" cy="134.800" r="1.344"/><circle cx="353.280" cy="123.600" r="1.344"/><circle cx="353.280" cy="129.200" r="1.344"/><circle cx="353.280" cy="134.800" r="1.344"/><circle cx="342.720" cy="140.400" r="1.344"/><circle cx="366.720" cy="123.600" r="1.344"/><circle cx="473.280" cy="140.400" r="1.344"/><circle cx="593.280" cy="123.600" r="1.344"/><circle cx="593.280" cy="129.200" r="1.344"/><circle cx="606.720" cy="123.600" r="1.344"/><circle cx="606.720" cy="129.200" r="1.344"/><circle cx="606.720" cy="134.800" r="1.344"/><circle cx="617.280" cy="129.200" r="1.344"/><circle cx="617.280" cy="134.800" r="1.344"/><circle cx="617.280" cy="140.400" r="1.344"/><circle cx="630.720" cy="140.400" r="1.344"/><circle cx="329.280" cy="147.600" r="1.344"/><circle cx="329.280" cy="153.200" r="1.344"/><circle cx="329.280" cy="158.800" r="1.344"/><circle cx="329.280" cy="164.400" r="1.344"/><circle cx="342.720" cy="147.600" r="1.344"/><circle cx="342.720" cy="153.200" r="1.344"/><circle cx="342.720" cy="158.800" r="1.344"/><circle cx="342.720" cy="164.400" r="1.344"/><circle cx="473.280" cy="147.600" r="1.344"/><circle cx="473.280" cy="153.200" r="1.344"/><circle cx="473.280" cy="158.800" r="1.344"/><circle cx="473.280" cy="164.400" r="1.344"/><circle cx="486.720" cy="147.600" r="1.344"/><circle cx="486.720" cy="153.200" r="1.344"/><circle cx="486.720" cy="158.800" r="1.344"/><circle cx="486.720" cy="164.400" r="1.344"/><circle cx="617.280" cy="147.600" r="1.344"/><circle cx="617.280" cy="153.200" r="1.344"/><circle cx="617.280" cy="158.800" r="1.344"/><circle cx="617.280" cy="164.400" r="1.344"/><circle cx="630.720" cy="147.600" r="1.344"/><circle cx="630.720" cy="153.200" r="1.344"/><circle cx="630.720" cy="158.800" r="1.344"/><circle cx="630.720" cy="164.400" r="1.344"/><circle cx="233.280" cy="188.400" r="1.344"/><circle cx="246.720" cy="188.400" r="1.344"/><circle cx="257.280" cy="188.400" r="1.344"/><circle cx="270.720" cy="188.400" r="1.344"/><circle cx="281.280" cy="188.400" r="1.344"/><circle cx="294.720" cy="188.400" r="1.344"/><circle cx="305.280" cy="188.400" r="1.344"/><circle cx="329.280" cy="171.600" r="1.344"/><circle cx="329.280" cy="177.200" r="1.344"/><circle cx="342.720" cy="171.600" r="1.344"/><circle cx="342.720" cy="177.200" r="1.344"/><circle cx="342.720" cy="182.800" r="1.344"/><circle cx="342.720" cy="188.400" r="1.344"/><circle cx="353.280" cy="188.400" r="1.344"/><circle cx="425.280" cy="182.800" r="1.344"/><circle cx="414.720" cy="188.400" r="1.344"/><circle cx="425.280" cy="188.400" r="1.344"/><circle cx="438.720" cy="177.200" r="1.344"/><circle cx="438.720" cy="182.800" r="1.344"/><circle cx="438.720" cy="188.400" r="1.344"/><circle cx="462.720" cy="171.600" r="1.344"/><circle cx="462.720" cy="177.200" r="1.344"/><circle cx="473.280" cy="171.600" r="1.344"/><circle cx="473.280" cy="177.200" r="1.344"/><circle cx="473.280" cy="182.800" r="1.344"/><circle cx="462.720" cy="188.400" r="1.344"/><circle cx="473.280" cy="188.400" r="1.344"/><circle cx="486.720" cy="171.600" r="1.344"/><circle cx="486.720" cy="177.200" r="1.344"/><circle cx="486.720" cy="182.800" r="1.344"/><circle cx="486.720" cy="188.400" r="1.344"/><circle cx="510.720" cy="177.200" r="1.344"/><circle cx="510.720" cy="182.800" r="1.344"/><circle cx="521.280" cy="182.800" r="1.344"/><circle cx="510.720" cy="188.400" r="1.344"/><circle cx="521.280" cy="188.400" r="1.344"/><circle cx="534.720" cy="182.800" r="1.344"/><circle cx="534.720" cy="188.400" r="1.344"/><circle cx="545.280" cy="188.400" r="1.344"/><circle cx="606.720" cy="182.800" r="1.344"/><circle cx="617.280" cy="171.600" r="1.344"/><circle cx="617.280" cy="177.200" r="1.344"/><circle cx="617.280" cy="182.800" r="1.344"/><circle cx="606.720" cy="188.400" r="1.344"/><circle cx="617.280" cy="188.400" r="1.344"/><circle cx="630.720" cy="171.600" r="1.344"/><circle cx="630.720" cy="177.200" r="1.344"/><circle cx="654.720" cy="188.400" r="1.344"/><circle cx="665.280" cy="188.400" r="1.344"/><circle cx="678.720" cy="188.400" r="1.344"/><circle cx="689.280" cy="188.400" r="1.344"/><circle cx="702.720" cy="188.400" r="1.344"/><circle cx="713.280" cy="188.400" r="1.344"/><circle cx="726.720" cy="188.400" r="1.344"/><circle cx="185.280" cy="206.800" r="1.344"/><circle cx="174.720" cy="212.400" r="1.344"/><circle cx="185.280" cy="212.400" r="1.344"/><circle cx="198.720" cy="201.200" r="1.344"/><circle cx="198.720" cy="206.800" r="1.344"/><circle cx="209.280" cy="195.600" r="1.344"/><circle cx="209.280" cy="201.200" r="1.344"/><circle cx="209.280" cy="206.800" r="1.344"/><circle cx="222.720" cy="195.600" r="1.344"/><circle cx="222.720" cy="201.200" r="1.344"/><circle cx="233.280" cy="195.600" r="1.344"/><circle cx="246.720" cy="195.600" r="1.344"/><circle cx="257.280" cy="195.600" r="1.344"/><circle cx="281.280" cy="195.600" r="1.344"/><circle cx="294.720" cy="195.600" r="1.344"/><circle cx="305.280" cy="195.600" r="1.344"/><circle cx="318.720" cy="195.600" r="1.344"/><circle cx="329.280" cy="195.600" r="1.344"/><circle cx="329.280" cy="201.200" r="1.344"/><circle cx="342.720" cy="201.200" r="1.344"/><circle cx="342.720" cy="206.800" r="1.344"/><circle cx="353.280" cy="195.600" r="1.344"/><circle cx="353.280" cy="201.200" r="1.344"/><circle cx="353.280" cy="206.800" r="1.344"/><circle cx="353.280" cy="212.400" r="1.344"/><circle cx="366.720" cy="195.600" r="1.344"/><circle cx="366.720" cy="201.200" r="1.344"/><circle cx="366.720" cy="206.800" r="1.344"/><circle cx="377.280" cy="206.800" r="1.344"/><circle cx="366.720" cy="212.400" r="1.344"/><circle cx="377.280" cy="212.400" r="1.344"/><circle cx="401.280" cy="195.600" r="1.344"/><circle cx="401.280" cy="201.200" r="1.344"/><circle cx="401.280" cy="206.800" r="1.344"/><circle cx="390.720" cy="212.400" r="1.344"/><circle cx="401.280" cy="212.400" r="1.344"/><circle cx="414.720" cy="195.600" r="1.344"/><circle cx="414.720" cy="201.200" r="1.344"/><circle cx="414.720" cy="206.800" r="1.344"/><circle cx="425.280" cy="195.600" r="1.344"/><circle cx="425.280" cy="201.200" r="1.344"/><circle cx="425.280" cy="206.800" r="1.344"/><circle cx="414.720" cy="212.400" r="1.344"/><circle cx="438.720" cy="195.600" r="1.344"/><circle cx="449.280" cy="195.600" r="1.344"/><circle cx="473.280" cy="195.600" r="1.344"/><circle cx="473.280" cy="201.200" r="1.344"/><circle cx="473.280" cy="206.800" r="1.344"/><circle cx="486.720" cy="195.600" r="1.344"/><circle cx="510.720" cy="195.600" r="1.344"/><circle cx="521.280" cy="195.600" r="1.344"/><circle cx="521.280" cy="201.200" r="1.344"/><circle cx="534.720" cy="195.600" r="1.344"/><circle cx="534.720" cy="201.200" r="1.344"/><circle cx="534.720" cy="206.800" r="1.344"/><circle cx="545.280" cy="195.600" r="1.344"/><circle cx="545.280" cy="201.200" r="1.344"/><circle cx="545.280" cy="206.800" r="1.344"/><circle cx="534.720" cy="212.400" r="1.344"/><circle cx="545.280" cy="212.400" r="1.344"/><circle cx="558.720" cy="201.200" r="1.344"/><circle cx="558.720" cy="206.800" r="1.344"/><circle cx="558.720" cy="212.400" r="1.344"/><circle cx="569.280" cy="212.400" r="1.344"/><circle cx="582.720" cy="206.800" r="1.344"/><circle cx="593.280" cy="195.600" r="1.344"/><circle cx="593.280" cy="201.200" r="1.344"/><circle cx="593.280" cy="206.800" r="1.344"/><circle cx="582.720" cy="212.400" r="1.344"/><circle cx="593.280" cy="212.400" r="1.344"/><circle cx="606.720" cy="195.600" r="1.344"/><circle cx="606.720" cy="201.200" r="1.344"/><circle cx="606.720" cy="206.800" r="1.344"/><circle cx="617.280" cy="201.200" r="1.344"/><circle cx="617.280" cy="206.800" r="1.344"/><circle cx="630.720" cy="195.600" r="1.344"/><circle cx="630.720" cy="201.200" r="1.344"/><circle cx="641.280" cy="195.600" r="1.344"/><circle cx="654.720" cy="195.600" r="1.344"/><circle cx="665.280" cy="195.600" r="1.344"/><circle cx="678.720" cy="195.600" r="1.344"/><circle cx="702.720" cy="195.600" r="1.344"/><circle cx="713.280" cy="195.600" r="1.344"/><circle cx="726.720" cy="195.600" r="1.344"/><circle cx="737.280" cy="195.600" r="1.344"/><circle cx="737.280" cy="201.200" r="1.344"/><circle cx="750.720" cy="195.600" r="1.344"/><circle cx="750.720" cy="201.200" r="1.344"/><circle cx="750.720" cy="206.800" r="1.344"/><circle cx="761.280" cy="201.200" r="1.344"/><circle cx="761.280" cy="206.800" r="1.344"/><circle cx="761.280" cy="212.400" r="1.344"/><circle cx="774.720" cy="206.800" r="1.344"/><circle cx="774.720" cy="212.400" r="1.344"/><circle cx="785.280" cy="212.400" r="1.344"/><circle cx="137.280" cy="230.800" r="1.344"/><circle cx="126.720" cy="236.400" r="1.344"/><circle cx="137.280" cy="236.400" r="1.344"/><circle cx="150.720" cy="225.200" r="1.344"/><circle cx="150.720" cy="230.800" r="1.344"/><circle cx="161.280" cy="219.600" r="1.344"/><circle cx="161.280" cy="225.200" r="1.344"/><circle cx="161.280" cy="230.800" r="1.344"/><circle cx="150.720" cy="236.400" r="1.344"/><circle cx="174.720" cy="219.600" r="1.344"/><circle cx="174.720" cy="225.200" r="1.344"/><circle cx="185.280" cy="219.600" r="1.344"/><circle cx="329.280" cy="230.800" r="1.344"/><circle cx="318.720" cy="236.400" r="1.344"/><circle cx="329.280" cy="236.400" r="1.344"/><circle cx="342.720" cy="230.800" r="1.344"/><circle cx="353.280" cy="225.200" r="1.344"/><circle cx="353.280" cy="230.800" r="1.344"/><circle cx="342.720" cy="236.400" r="1.344"/><circle cx="353.280" cy="236.400" r="1.344"/><circle cx="366.720" cy="225.200" r="1.344"/><circle cx="366.720" cy="230.800" r="1.344"/><circle cx="377.280" cy="219.600" r="1.344"/><circle cx="377.280" cy="225.200" r="1.344"/><circle cx="377.280" cy="230.800" r="1.344"/><circle cx="366.720" cy="236.400" r="1.344"/><circle cx="390.720" cy="219.600" r="1.344"/><circle cx="390.720" cy="225.200" r="1.344"/><circle cx="390.720" cy="230.800" r="1.344"/><circle cx="401.280" cy="219.600" r="1.344"/><circle cx="401.280" cy="225.200" r="1.344"/><circle cx="401.280" cy="230.800" r="1.344"/><circle cx="390.720" cy="236.400" r="1.344"/><circle cx="401.280" cy="236.400" r="1.344"/><circle cx="414.720" cy="219.600" r="1.344"/><circle cx="414.720" cy="225.200" r="1.344"/><circle cx="414.720" cy="230.800" r="1.344"/><circle cx="425.280" cy="225.200" r="1.344"/><circle cx="425.280" cy="230.800" r="1.344"/><circle cx="414.720" cy="236.400" r="1.344"/><circle cx="425.280" cy="236.400" r="1.344"/><circle cx="449.280" cy="230.800" r="1.344"/><circle cx="438.720" cy="236.400" r="1.344"/><circle cx="449.280" cy="236.400" r="1.344"/><circle cx="462.720" cy="219.600" r="1.344"/><circle cx="462.720" cy="225.200" r="1.344"/><circle cx="462.720" cy="230.800" r="1.344"/><circle cx="486.720" cy="219.600" r="1.344"/><circle cx="497.280" cy="225.200" r="1.344"/><circle cx="497.280" cy="230.800" r="1.344"/><circle cx="497.280" cy="236.400" r="1.344"/><circle cx="510.720" cy="230.800" r="1.344"/><circle cx="510.720" cy="236.400" r="1.344"/><circle cx="521.280" cy="236.400" r="1.344"/><circle cx="534.720" cy="225.200" r="1.344"/><circle cx="534.720" cy="230.800" r="1.344"/><circle cx="545.280" cy="219.600" r="1.344"/><circle cx="545.280" cy="225.200" r="1.344"/><circle cx="545.280" cy="230.800" r="1.344"/><circle cx="534.720" cy="236.400" r="1.344"/><circle cx="545.280" cy="236.400" r="1.344"/><circle cx="558.720" cy="219.600" r="1.344"/><circle cx="558.720" cy="225.200" r="1.344"/><circle cx="558.720" cy="230.800" r="1.344"/><circle cx="569.280" cy="219.600" r="1.344"/><circle cx="569.280" cy="225.200" r="1.344"/><circle cx="569.280" cy="230.800" r="1.344"/><circle cx="558.720" cy="236.400" r="1.344"/><circle cx="582.720" cy="219.600" r="1.344"/><circle cx="582.720" cy="225.200" r="1.344"/><circle cx="582.720" cy="230.800" r="1.344"/><circle cx="593.280" cy="225.200" r="1.344"/><circle cx="593.280" cy="230.800" r="1.344"/><circle cx="582.720" cy="236.400" r="1.344"/><circle cx="593.280" cy="236.400" r="1.344"/><circle cx="606.720" cy="225.200" r="1.344"/><circle cx="606.720" cy="230.800" r="1.344"/><circle cx="617.280" cy="230.800" r="1.344"/><circle cx="606.720" cy="236.400" r="1.344"/><circle cx="617.280" cy="236.400" r="1.344"/><circle cx="630.720" cy="236.400" r="1.344"/><circle cx="641.280" cy="236.400" r="1.344"/><circle cx="774.720" cy="219.600" r="1.344"/><circle cx="785.280" cy="219.600" r="1.344"/><circle cx="785.280" cy="225.200" r="1.344"/><circle cx="798.720" cy="219.600" r="1.344"/><circle cx="798.720" cy="225.200" r="1.344"/><circle cx="798.720" cy="230.800" r="1.344"/><circle cx="809.280" cy="225.200" r="1.344"/><circle cx="809.280" cy="230.800" r="1.344"/><circle cx="809.280" cy="236.400" r="1.344"/><circle cx="822.720" cy="230.800" r="1.344"/><circle cx="822.720" cy="236.400" r="1.344"/><circle cx="833.280" cy="236.400" r="1.344"/><circle cx="41.280" cy="260.400" r="1.344"/><circle cx="54.720" cy="260.400" r="1.344"/><circle cx="65.280" cy="260.400" r="1.344"/><circle cx="78.720" cy="254.800" r="1.344"/><circle cx="89.280" cy="254.800" r="1.344"/><circle cx="78.720" cy="260.400" r="1.344"/><circle cx="89.280" cy="260.400" r="1.344"/><circle cx="102.720" cy="249.200" r="1.344"/><circle cx="102.720" cy="254.800" r="1.344"/><circle cx="113.280" cy="243.600" r="1.344"/><circle cx="113.280" cy="249.200" r="1.344"/><circle cx="126.720" cy="243.600" r="1.344"/><circle cx="126.720" cy="249.200" r="1.344"/><circle cx="137.280" cy="243.600" r="1.344"/><circle cx="270.720" cy="260.400" r="1.344"/><circle cx="281.280" cy="260.400" r="1.344"/><circle cx="305.280" cy="243.600" r="1.344"/><circle cx="305.280" cy="249.200" r="1.344"/><circle cx="294.720" cy="260.400" r="1.344"/><circle cx="305.280" cy="260.400" r="1.344"/><circle cx="318.720" cy="243.600" r="1.344"/><circle cx="318.720" cy="249.200" r="1.344"/><circle cx="329.280" cy="243.600" r="1.344"/><circle cx="329.280" cy="249.200" r="1.344"/><circle cx="318.720" cy="260.400" r="1.344"/><circle cx="342.720" cy="243.600" r="1.344"/><circle cx="342.720" cy="249.200" r="1.344"/><circle cx="401.280" cy="254.800" r="1.344"/><circle cx="390.720" cy="260.400" r="1.344"/><circle cx="401.280" cy="260.400" r="1.344"/><circle cx="414.720" cy="249.200" r="1.344"/><circle cx="414.720" cy="254.800" r="1.344"/><circle cx="425.280" cy="243.600" r="1.344"/><circle cx="425.280" cy="249.200" r="1.344"/><circle cx="425.280" cy="254.800" r="1.344"/><circle cx="414.720" cy="260.400" r="1.344"/><circle cx="438.720" cy="243.600" r="1.344"/><circle cx="438.720" cy="249.200" r="1.344"/><circle cx="438.720" cy="254.800" r="1.344"/><circle cx="449.280" cy="243.600" r="1.344"/><circle cx="449.280" cy="249.200" r="1.344"/><circle cx="449.280" cy="254.800" r="1.344"/><circle cx="462.720" cy="249.200" r="1.344"/><circle cx="462.720" cy="254.800" r="1.344"/><circle cx="462.720" cy="260.400" r="1.344"/><circle cx="473.280" cy="260.400" r="1.344"/><circle cx="486.720" cy="254.800" r="1.344"/><circle cx="497.280" cy="243.600" r="1.344"/><circle cx="497.280" cy="249.200" r="1.344"/><circle cx="497.280" cy="254.800" r="1.344"/><circle cx="486.720" cy="260.400" r="1.344"/><circle cx="497.280" cy="260.400" r="1.344"/><circle cx="510.720" cy="243.600" r="1.344"/><circle cx="510.720" cy="249.200" r="1.344"/><circle cx="510.720" cy="254.800" r="1.344"/><circle cx="521.280" cy="243.600" r="1.344"/><circle cx="521.280" cy="249.200" r="1.344"/><circle cx="534.720" cy="243.600" r="1.344"/><circle cx="534.720" cy="254.800" r="1.344"/><circle cx="545.280" cy="249.200" r="1.344"/><circle cx="545.280" cy="254.800" r="1.344"/><circle cx="545.280" cy="260.400" r="1.344"/><circle cx="558.720" cy="254.800" r="1.344"/><circle cx="558.720" cy="260.400" r="1.344"/><circle cx="569.280" cy="260.400" r="1.344"/><circle cx="606.720" cy="243.600" r="1.344"/><circle cx="617.280" cy="243.600" r="1.344"/><circle cx="617.280" cy="249.200" r="1.344"/><circle cx="630.720" cy="243.600" r="1.344"/><circle cx="630.720" cy="249.200" r="1.344"/><circle cx="630.720" cy="254.800" r="1.344"/><circle cx="641.280" cy="243.600" r="1.344"/><circle cx="641.280" cy="249.200" r="1.344"/><circle cx="630.720" cy="260.400" r="1.344"/><circle cx="641.280" cy="260.400" r="1.344"/><circle cx="654.720" cy="249.200" r="1.344"/><circle cx="654.720" cy="260.400" r="1.344"/><circle cx="665.280" cy="260.400" r="1.344"/><circle cx="678.720" cy="260.400" r="1.344"/><circle cx="689.280" cy="260.400" r="1.344"/><circle cx="822.720" cy="243.600" r="1.344"/><circle cx="833.280" cy="243.600" r="1.344"/><circle cx="833.280" cy="249.200" r="1.344"/><circle cx="846.720" cy="243.600" r="1.344"/><circle cx="846.720" cy="249.200" r="1.344"/><circle cx="857.280" cy="249.200" r="1.344"/><circle cx="857.280" cy="254.800" r="1.344"/><circle cx="870.720" cy="254.800" r="1.344"/><circle cx="881.280" cy="254.800" r="1.344"/><circle cx="870.720" cy="260.400" r="1.344"/><circle cx="881.280" cy="260.400" r="1.344"/><circle cx="894.720" cy="260.400" r="1.344"/><circle cx="905.280" cy="260.400" r="1.344"/><circle cx="918.720" cy="260.400" r="1.344"/><circle cx="6.720" cy="267.600" r="1.344"/><circle cx="17.280" cy="267.600" r="1.344"/><circle cx="30.720" cy="267.600" r="1.344"/><circle cx="41.280" cy="267.600" r="1.344"/><circle cx="41.280" cy="273.200" r="1.344"/><circle cx="54.720" cy="267.600" r="1.344"/><circle cx="54.720" cy="273.200" r="1.344"/><circle cx="65.280" cy="267.600" r="1.344"/><circle cx="65.280" cy="273.200" r="1.344"/><circle cx="65.280" cy="278.800" r="1.344"/><circle cx="78.720" cy="273.200" r="1.344"/><circle cx="78.720" cy="278.800" r="1.344"/><circle cx="89.280" cy="278.800" r="1.344"/><circle cx="89.280" cy="284.400" r="1.344"/><circle cx="102.720" cy="278.800" r="1.344"/><circle cx="102.720" cy="284.400" r="1.344"/><circle cx="113.280" cy="284.400" r="1.344"/><circle cx="126.720" cy="284.400" r="1.344"/><circle cx="222.720" cy="267.600" r="1.344"/><circle cx="233.280" cy="267.600" r="1.344"/><circle cx="246.720" cy="267.600" r="1.344"/><circle cx="257.280" cy="267.600" r="1.344"/><circle cx="257.280" cy="273.200" r="1.344"/><circle cx="270.720" cy="267.600" r="1.344"/><circle cx="270.720" cy="273.200" r="1.344"/><circle cx="281.280" cy="267.600" r="1.344"/><circle cx="281.280" cy="273.200" r="1.344"/><circle cx="294.720" cy="267.600" r="1.344"/><circle cx="294.720" cy="273.200" r="1.344"/><circle cx="305.280" cy="267.600" r="1.344"/><circle cx="305.280" cy="273.200" r="1.344"/><circle cx="305.280" cy="284.400" r="1.344"/><circle cx="318.720" cy="267.600" r="1.344"/><circle cx="318.720" cy="273.200" r="1.344"/><circle cx="329.280" cy="267.600" r="1.344"/><circle cx="329.280" cy="273.200" r="1.344"/><circle cx="318.720" cy="284.400" r="1.344"/><circle cx="329.280" cy="284.400" r="1.344"/><circle cx="342.720" cy="267.600" r="1.344"/><circle cx="353.280" cy="267.600" r="1.344"/><circle cx="377.280" cy="273.200" r="1.344"/><circle cx="390.720" cy="273.200" r="1.344"/><circle cx="390.720" cy="278.800" r="1.344"/><circle cx="401.280" cy="273.200" r="1.344"/><circle cx="401.280" cy="278.800" r="1.344"/><circle cx="401.280" cy="284.400" r="1.344"/><circle cx="414.720" cy="278.800" r="1.344"/><circle cx="414.720" cy="284.400" r="1.344"/><circle cx="425.280" cy="284.400" r="1.344"/><circle cx="438.720" cy="278.800" r="1.344"/><circle cx="449.280" cy="278.800" r="1.344"/><circle cx="438.720" cy="284.400" r="1.344"/><circle cx="449.280" cy="284.400" r="1.344"/><circle cx="462.720" cy="267.600" r="1.344"/><circle cx="462.720" cy="273.200" r="1.344"/><circle cx="462.720" cy="278.800" r="1.344"/><circle cx="473.280" cy="267.600" r="1.344"/><circle cx="473.280" cy="273.200" r="1.344"/><circle cx="462.720" cy="284.400" r="1.344"/><circle cx="486.720" cy="267.600" r="1.344"/><circle cx="486.720" cy="273.200" r="1.344"/><circle cx="486.720" cy="278.800" r="1.344"/><circle cx="497.280" cy="273.200" r="1.344"/><circle cx="497.280" cy="278.800" r="1.344"/><circle cx="497.280" cy="284.400" r="1.344"/><circle cx="510.720" cy="278.800" r="1.344"/><circle cx="521.280" cy="278.800" r="1.344"/><circle cx="510.720" cy="284.400" r="1.344"/><circle cx="521.280" cy="284.400" r="1.344"/><circle cx="534.720" cy="278.800" r="1.344"/><circle cx="545.280" cy="278.800" r="1.344"/><circle cx="534.720" cy="284.400" r="1.344"/><circle cx="545.280" cy="284.400" r="1.344"/><circle cx="558.720" cy="273.200" r="1.344"/><circle cx="558.720" cy="278.800" r="1.344"/><circle cx="569.280" cy="273.200" r="1.344"/><circle cx="593.280" cy="267.600" r="1.344"/><circle cx="606.720" cy="267.600" r="1.344"/><circle cx="617.280" cy="267.600" r="1.344"/><circle cx="617.280" cy="273.200" r="1.344"/><circle cx="617.280" cy="284.400" r="1.344"/><circle cx="630.720" cy="267.600" r="1.344"/><circle cx="630.720" cy="273.200" r="1.344"/><circle cx="641.280" cy="267.600" r="1.344"/><circle cx="641.280" cy="273.200" r="1.344"/><circle cx="630.720" cy="284.400" r="1.344"/><circle cx="641.280" cy="284.400" r="1.344"/><circle cx="654.720" cy="267.600" r="1.344"/><circle cx="654.720" cy="273.200" r="1.344"/><circle cx="665.280" cy="267.600" r="1.344"/><circle cx="665.280" cy="273.200" r="1.344"/><circle cx="654.720" cy="284.400" r="1.344"/><circle cx="678.720" cy="267.600" r="1.344"/><circle cx="678.720" cy="273.200" r="1.344"/><circle cx="689.280" cy="267.600" r="1.344"/><circle cx="689.280" cy="273.200" r="1.344"/><circle cx="702.720" cy="267.600" r="1.344"/><circle cx="702.720" cy="273.200" r="1.344"/><circle cx="713.280" cy="267.600" r="1.344"/><circle cx="726.720" cy="267.600" r="1.344"/><circle cx="737.280" cy="267.600" r="1.344"/><circle cx="833.280" cy="284.400" r="1.344"/><circle cx="857.280" cy="278.800" r="1.344"/><circle cx="846.720" cy="284.400" r="1.344"/><circle cx="857.280" cy="284.400" r="1.344"/><circle cx="870.720" cy="273.200" r="1.344"/><circle cx="870.720" cy="278.800" r="1.344"/><circle cx="881.280" cy="273.200" r="1.344"/><circle cx="881.280" cy="278.800" r="1.344"/><circle cx="894.720" cy="267.600" r="1.344"/><circle cx="894.720" cy="273.200" r="1.344"/><circle cx="905.280" cy="267.600" r="1.344"/><circle cx="905.280" cy="273.200" r="1.344"/><circle cx="918.720" cy="267.600" r="1.344"/><circle cx="918.720" cy="273.200" r="1.344"/><circle cx="929.280" cy="267.600" r="1.344"/><circle cx="942.720" cy="267.600" r="1.344"/><circle cx="953.280" cy="267.600" r="1.344"/><circle cx="113.280" cy="291.600" r="1.344"/><circle cx="126.720" cy="291.600" r="1.344"/><circle cx="126.720" cy="297.200" r="1.344"/><circle cx="137.280" cy="291.600" r="1.344"/><circle cx="137.280" cy="297.200" r="1.344"/><circle cx="137.280" cy="302.800" r="1.344"/><circle cx="150.720" cy="297.200" r="1.344"/><circle cx="150.720" cy="302.800" r="1.344"/><circle cx="161.280" cy="302.800" r="1.344"/><circle cx="150.720" cy="308.400" r="1.344"/><circle cx="161.280" cy="308.400" r="1.344"/><circle cx="174.720" cy="308.400" r="1.344"/><circle cx="305.280" cy="291.600" r="1.344"/><circle cx="318.720" cy="291.600" r="1.344"/><circle cx="318.720" cy="297.200" r="1.344"/><circle cx="329.280" cy="291.600" r="1.344"/><circle cx="329.280" cy="297.200" r="1.344"/><circle cx="329.280" cy="302.800" r="1.344"/><circle cx="342.720" cy="291.600" r="1.344"/><circle cx="342.720" cy="297.200" r="1.344"/><circle cx="342.720" cy="302.800" r="1.344"/><circle cx="353.280" cy="297.200" r="1.344"/><circle cx="353.280" cy="302.800" r="1.344"/><circle cx="342.720" cy="308.400" r="1.344"/><circle cx="353.280" cy="308.400" r="1.344"/><circle cx="366.720" cy="297.200" r="1.344"/><circle cx="366.720" cy="302.800" r="1.344"/><circle cx="377.280" cy="297.200" r="1.344"/><circle cx="377.280" cy="302.800" r="1.344"/><circle cx="366.720" cy="308.400" r="1.344"/><circle cx="377.280" cy="308.400" r="1.344"/><circle cx="390.720" cy="297.200" r="1.344"/><circle cx="390.720" cy="302.800" r="1.344"/><circle cx="401.280" cy="297.200" r="1.344"/><circle cx="401.280" cy="302.800" r="1.344"/><circle cx="390.720" cy="308.400" r="1.344"/><circle cx="401.280" cy="308.400" r="1.344"/><circle cx="414.720" cy="291.600" r="1.344"/><circle cx="414.720" cy="297.200" r="1.344"/><circle cx="414.720" cy="302.800" r="1.344"/><circle cx="425.280" cy="291.600" r="1.344"/><circle cx="425.280" cy="297.200" r="1.344"/><circle cx="425.280" cy="302.800" r="1.344"/><circle cx="414.720" cy="308.400" r="1.344"/><circle cx="425.280" cy="308.400" r="1.344"/><circle cx="438.720" cy="291.600" r="1.344"/><circle cx="438.720" cy="297.200" r="1.344"/><circle cx="449.280" cy="291.600" r="1.344"/><circle cx="449.280" cy="297.200" r="1.344"/><circle cx="449.280" cy="302.800" r="1.344"/><circle cx="449.280" cy="308.400" r="1.344"/><circle cx="462.720" cy="308.400" r="1.344"/><circle cx="497.280" cy="308.400" r="1.344"/><circle cx="510.720" cy="291.600" r="1.344"/><circle cx="510.720" cy="302.800" r="1.344"/><circle cx="521.280" cy="291.600" r="1.344"/><circle cx="521.280" cy="297.200" r="1.344"/><circle cx="510.720" cy="308.400" r="1.344"/><circle cx="534.720" cy="291.600" r="1.344"/><circle cx="534.720" cy="297.200" r="1.344"/><circle cx="534.720" cy="302.800" r="1.344"/><circle cx="545.280" cy="297.200" r="1.344"/><circle cx="545.280" cy="302.800" r="1.344"/><circle cx="534.720" cy="308.400" r="1.344"/><circle cx="545.280" cy="308.400" r="1.344"/><circle cx="558.720" cy="297.200" r="1.344"/><circle cx="558.720" cy="302.800" r="1.344"/><circle cx="569.280" cy="297.200" r="1.344"/><circle cx="569.280" cy="302.800" r="1.344"/><circle cx="558.720" cy="308.400" r="1.344"/><circle cx="569.280" cy="308.400" r="1.344"/><circle cx="582.720" cy="302.800" r="1.344"/><circle cx="593.280" cy="297.200" r="1.344"/><circle cx="593.280" cy="302.800" r="1.344"/><circle cx="582.720" cy="308.400" r="1.344"/><circle cx="593.280" cy="308.400" r="1.344"/><circle cx="606.720" cy="291.600" r="1.344"/><circle cx="606.720" cy="297.200" r="1.344"/><circle cx="606.720" cy="302.800" r="1.344"/><circle cx="617.280" cy="291.600" r="1.344"/><circle cx="617.280" cy="297.200" r="1.344"/><circle cx="617.280" cy="302.800" r="1.344"/><circle cx="606.720" cy="308.400" r="1.344"/><circle cx="630.720" cy="291.600" r="1.344"/><circle cx="630.720" cy="297.200" r="1.344"/><circle cx="630.720" cy="302.800" r="1.344"/><circle cx="641.280" cy="291.600" r="1.344"/><circle cx="641.280" cy="297.200" r="1.344"/><circle cx="654.720" cy="291.600" r="1.344"/><circle cx="785.280" cy="308.400" r="1.344"/><circle cx="798.720" cy="302.800" r="1.344"/><circle cx="809.280" cy="297.200" r="1.344"/><circle cx="809.280" cy="302.800" r="1.344"/><circle cx="798.720" cy="308.400" r="1.344"/><circle cx="809.280" cy="308.400" r="1.344"/><circle cx="822.720" cy="291.600" r="1.344"/><circle cx="822.720" cy="297.200" r="1.344"/><circle cx="822.720" cy="302.800" r="1.344"/><circle cx="833.280" cy="291.600" r="1.344"/><circle cx="833.280" cy="297.200" r="1.344"/><circle cx="846.720" cy="291.600" r="1.344"/><circle cx="161.280" cy="315.600" r="1.344"/><circle cx="174.720" cy="315.600" r="1.344"/><circle cx="174.720" cy="321.200" r="1.344"/><circle cx="185.280" cy="321.200" r="1.344"/><circle cx="185.280" cy="326.800" r="1.344"/><circle cx="198.720" cy="321.200" r="1.344"/><circle cx="198.720" cy="326.800" r="1.344"/><circle cx="209.280" cy="326.800" r="1.344"/><circle cx="198.720" cy="332.400" r="1.344"/><circle cx="209.280" cy="332.400" r="1.344"/><circle cx="222.720" cy="332.400" r="1.344"/><circle cx="329.280" cy="332.400" r="1.344"/><circle cx="342.720" cy="326.800" r="1.344"/><circle cx="353.280" cy="326.800" r="1.344"/><circle cx="342.720" cy="332.400" r="1.344"/><circle cx="353.280" cy="332.400" r="1.344"/><circle cx="366.720" cy="321.200" r="1.344"/><circle cx="366.720" cy="326.800" r="1.344"/><circle cx="377.280" cy="315.600" r="1.344"/><circle cx="377.280" cy="321.200" r="1.344"/><circle cx="377.280" cy="326.800" r="1.344"/><circle cx="366.720" cy="332.400" r="1.344"/><circle cx="390.720" cy="315.600" r="1.344"/><circle cx="390.720" cy="321.200" r="1.344"/><circle cx="390.720" cy="326.800" r="1.344"/><circle cx="401.280" cy="315.600" r="1.344"/><circle cx="401.280" cy="321.200" r="1.344"/><circle cx="401.280" cy="326.800" r="1.344"/><circle cx="390.720" cy="332.400" r="1.344"/><circle cx="401.280" cy="332.400" r="1.344"/><circle cx="414.720" cy="315.600" r="1.344"/><circle cx="414.720" cy="321.200" r="1.344"/><circle cx="414.720" cy="326.800" r="1.344"/><circle cx="414.720" cy="332.400" r="1.344"/><circle cx="449.280" cy="315.600" r="1.344"/><circle cx="462.720" cy="315.600" r="1.344"/><circle cx="462.720" cy="321.200" r="1.344"/><circle cx="462.720" cy="326.800" r="1.344"/><circle cx="473.280" cy="315.600" r="1.344"/><circle cx="473.280" cy="321.200" r="1.344"/><circle cx="473.280" cy="326.800" r="1.344"/><circle cx="473.280" cy="332.400" r="1.344"/><circle cx="486.720" cy="315.600" r="1.344"/><circle cx="486.720" cy="321.200" r="1.344"/><circle cx="486.720" cy="326.800" r="1.344"/><circle cx="497.280" cy="315.600" r="1.344"/><circle cx="497.280" cy="321.200" r="1.344"/><circle cx="486.720" cy="332.400" r="1.344"/><circle cx="510.720" cy="315.600" r="1.344"/><circle cx="534.720" cy="315.600" r="1.344"/><circle cx="545.280" cy="315.600" r="1.344"/><circle cx="545.280" cy="321.200" r="1.344"/><circle cx="545.280" cy="326.800" r="1.344"/><circle cx="534.720" cy="332.400" r="1.344"/><circle cx="545.280" cy="332.400" r="1.344"/><circle cx="558.720" cy="315.600" r="1.344"/><circle cx="558.720" cy="321.200" r="1.344"/><circle cx="558.720" cy="326.800" r="1.344"/><circle cx="569.280" cy="315.600" r="1.344"/><circle cx="569.280" cy="321.200" r="1.344"/><circle cx="558.720" cy="332.400" r="1.344"/><circle cx="582.720" cy="315.600" r="1.344"/><circle cx="582.720" cy="321.200" r="1.344"/><circle cx="582.720" cy="326.800" r="1.344"/><circle cx="593.280" cy="321.200" r="1.344"/><circle cx="593.280" cy="326.800" r="1.344"/><circle cx="582.720" cy="332.400" r="1.344"/><circle cx="593.280" cy="332.400" r="1.344"/><circle cx="606.720" cy="326.800" r="1.344"/><circle cx="617.280" cy="326.800" r="1.344"/><circle cx="606.720" cy="332.400" r="1.344"/><circle cx="617.280" cy="332.400" r="1.344"/><circle cx="630.720" cy="332.400" r="1.344"/><circle cx="737.280" cy="332.400" r="1.344"/><circle cx="750.720" cy="326.800" r="1.344"/><circle cx="761.280" cy="321.200" r="1.344"/><circle cx="761.280" cy="326.800" r="1.344"/><circle cx="750.720" cy="332.400" r="1.344"/><circle cx="761.280" cy="332.400" r="1.344"/><circle cx="774.720" cy="315.600" r="1.344"/><circle cx="774.720" cy="321.200" r="1.344"/><circle cx="774.720" cy="326.800" r="1.344"/><circle cx="785.280" cy="315.600" r="1.344"/><circle cx="785.280" cy="321.200" r="1.344"/><circle cx="798.720" cy="315.600" r="1.344"/><circle cx="209.280" cy="339.600" r="1.344"/><circle cx="222.720" cy="339.600" r="1.344"/><circle cx="233.280" cy="339.600" r="1.344"/><circle cx="233.280" cy="345.200" r="1.344"/><circle cx="246.720" cy="339.600" r="1.344"/><circle cx="246.720" cy="345.200" r="1.344"/><circle cx="257.280" cy="339.600" r="1.344"/><circle cx="257.280" cy="345.200" r="1.344"/><circle cx="270.720" cy="345.200" r="1.344"/><circle cx="281.280" cy="339.600" r="1.344"/><circle cx="281.280" cy="345.200" r="1.344"/><circle cx="294.720" cy="339.600" r="1.344"/><circle cx="294.720" cy="345.200" r="1.344"/><circle cx="305.280" cy="339.600" r="1.344"/><circle cx="305.280" cy="345.200" r="1.344"/><circle cx="318.720" cy="339.600" r="1.344"/><circle cx="329.280" cy="339.600" r="1.344"/><circle cx="329.280" cy="356.400" r="1.344"/><circle cx="342.720" cy="345.200" r="1.344"/><circle cx="342.720" cy="350.800" r="1.344"/><circle cx="353.280" cy="339.600" r="1.344"/><circle cx="353.280" cy="345.200" r="1.344"/><circle cx="342.720" cy="356.400" r="1.344"/><circle cx="366.720" cy="339.600" r="1.344"/><circle cx="401.280" cy="339.600" r="1.344"/><circle cx="401.280" cy="345.200" r="1.344"/><circle cx="414.720" cy="339.600" r="1.344"/><circle cx="414.720" cy="345.200" r="1.344"/><circle cx="414.720" cy="350.800" r="1.344"/><circle cx="425.280" cy="339.600" r="1.344"/><circle cx="425.280" cy="345.200" r="1.344"/><circle cx="425.280" cy="350.800" r="1.344"/><circle cx="414.720" cy="356.400" r="1.344"/><circle cx="425.280" cy="356.400" r="1.344"/><circle cx="438.720" cy="345.200" r="1.344"/><circle cx="438.720" cy="350.800" r="1.344"/><circle cx="449.280" cy="350.800" r="1.344"/><circle cx="438.720" cy="356.400" r="1.344"/><circle cx="449.280" cy="356.400" r="1.344"/><circle cx="462.720" cy="339.600" r="1.344"/><circle cx="462.720" cy="345.200" r="1.344"/><circle cx="473.280" cy="339.600" r="1.344"/><circle cx="473.280" cy="345.200" r="1.344"/><circle cx="473.280" cy="350.800" r="1.344"/><circle cx="462.720" cy="356.400" r="1.344"/><circle cx="473.280" cy="356.400" r="1.344"/><circle cx="486.720" cy="339.600" r="1.344"/><circle cx="486.720" cy="345.200" r="1.344"/><circle cx="486.720" cy="350.800" r="1.344"/><circle cx="486.720" cy="356.400" r="1.344"/><circle cx="510.720" cy="350.800" r="1.344"/><circle cx="521.280" cy="345.200" r="1.344"/><circle cx="521.280" cy="350.800" r="1.344"/><circle cx="510.720" cy="356.400" r="1.344"/><circle cx="521.280" cy="356.400" r="1.344"/><circle cx="534.720" cy="339.600" r="1.344"/><circle cx="534.720" cy="345.200" r="1.344"/><circle cx="534.720" cy="350.800" r="1.344"/><circle cx="545.280" cy="339.600" r="1.344"/><circle cx="545.280" cy="345.200" r="1.344"/><circle cx="545.280" cy="350.800" r="1.344"/><circle cx="534.720" cy="356.400" r="1.344"/><circle cx="545.280" cy="356.400" r="1.344"/><circle cx="558.720" cy="339.600" r="1.344"/><circle cx="558.720" cy="345.200" r="1.344"/><circle cx="593.280" cy="339.600" r="1.344"/><circle cx="606.720" cy="339.600" r="1.344"/><circle cx="606.720" cy="345.200" r="1.344"/><circle cx="606.720" cy="350.800" r="1.344"/><circle cx="617.280" cy="345.200" r="1.344"/><circle cx="617.280" cy="350.800" r="1.344"/><circle cx="617.280" cy="356.400" r="1.344"/><circle cx="630.720" cy="339.600" r="1.344"/><circle cx="641.280" cy="339.600" r="1.344"/><circle cx="654.720" cy="339.600" r="1.344"/><circle cx="654.720" cy="345.200" r="1.344"/><circle cx="665.280" cy="339.600" r="1.344"/><circle cx="665.280" cy="345.200" r="1.344"/><circle cx="678.720" cy="339.600" r="1.344"/><circle cx="678.720" cy="345.200" r="1.344"/><circle cx="689.280" cy="345.200" r="1.344"/><circle cx="702.720" cy="339.600" r="1.344"/><circle cx="702.720" cy="345.200" r="1.344"/><circle cx="713.280" cy="339.600" r="1.344"/><circle cx="713.280" cy="345.200" r="1.344"/><circle cx="726.720" cy="339.600" r="1.344"/><circle cx="726.720" cy="345.200" r="1.344"/><circle cx="737.280" cy="339.600" r="1.344"/><circle cx="750.720" cy="339.600" r="1.344"/><circle cx="318.720" cy="374.800" r="1.344"/><circle cx="329.280" cy="363.600" r="1.344"/><circle cx="329.280" cy="369.200" r="1.344"/><circle cx="329.280" cy="374.800" r="1.344"/><circle cx="329.280" cy="380.400" r="1.344"/><circle cx="342.720" cy="363.600" r="1.344"/><circle cx="342.720" cy="369.200" r="1.344"/><circle cx="342.720" cy="380.400" r="1.344"/><circle cx="425.280" cy="363.600" r="1.344"/><circle cx="438.720" cy="363.600" r="1.344"/><circle cx="438.720" cy="369.200" r="1.344"/><circle cx="449.280" cy="363.600" r="1.344"/><circle cx="449.280" cy="369.200" r="1.344"/><circle cx="449.280" cy="374.800" r="1.344"/><circle cx="462.720" cy="369.200" r="1.344"/><circle cx="473.280" cy="363.600" r="1.344"/><circle cx="473.280" cy="369.200" r="1.344"/><circle cx="473.280" cy="374.800" r="1.344"/><circle cx="462.720" cy="380.400" r="1.344"/><circle cx="473.280" cy="380.400" r="1.344"/><circle cx="486.720" cy="363.600" r="1.344"/><circle cx="486.720" cy="369.200" r="1.344"/><circle cx="486.720" cy="374.800" r="1.344"/><circle cx="497.280" cy="363.600" r="1.344"/><circle cx="497.280" cy="374.800" r="1.344"/><circle cx="486.720" cy="380.400" r="1.344"/><circle cx="510.720" cy="363.600" r="1.344"/><circle cx="510.720" cy="369.200" r="1.344"/><circle cx="521.280" cy="363.600" r="1.344"/><circle cx="534.720" cy="363.600" r="1.344"/><circle cx="617.280" cy="363.600" r="1.344"/><circle cx="617.280" cy="369.200" r="1.344"/><circle cx="617.280" cy="374.800" r="1.344"/><circle cx="617.280" cy="380.400" r="1.344"/><circle cx="630.720" cy="363.600" r="1.344"/><circle cx="630.720" cy="369.200" r="1.344"/><circle cx="630.720" cy="374.800" r="1.344"/><circle cx="630.720" cy="380.400" r="1.344"/><circle cx="329.280" cy="387.600" r="1.344"/><circle cx="329.280" cy="393.200" r="1.344"/><circle cx="329.280" cy="398.800" r="1.344"/><circle cx="342.720" cy="387.600" r="1.344"/><circle cx="342.720" cy="393.200" r="1.344"/><circle cx="342.720" cy="398.800" r="1.344"/><circle cx="342.720" cy="404.400" r="1.344"/><circle cx="353.280" cy="404.400" r="1.344"/><circle cx="473.280" cy="387.600" r="1.344"/><circle cx="473.280" cy="393.200" r="1.344"/><circle cx="473.280" cy="398.800" r="1.344"/><circle cx="473.280" cy="404.400" r="1.344"/><circle cx="486.720" cy="387.600" r="1.344"/><circle cx="486.720" cy="393.200" r="1.344"/><circle cx="486.720" cy="398.800" r="1.344"/><circle cx="486.720" cy="404.400" r="1.344"/><circle cx="606.720" cy="398.800" r="1.344"/><circle cx="617.280" cy="387.600" r="1.344"/><circle cx="617.280" cy="393.200" r="1.344"/><circle cx="617.280" cy="398.800" r="1.344"/><circle cx="606.720" cy="404.400" r="1.344"/><circle cx="617.280" cy="404.400" r="1.344"/><circle cx="630.720" cy="387.600" r="1.344"/><circle cx="630.720" cy="393.200" r="1.344"/><circle cx="342.720" cy="411.600" r="1.344"/><circle cx="353.280" cy="411.600" r="1.344"/><circle cx="353.280" cy="417.200" r="1.344"/><circle cx="366.720" cy="411.600" r="1.344"/><circle cx="366.720" cy="417.200" r="1.344"/><circle cx="366.720" cy="422.800" r="1.344"/><circle cx="377.280" cy="422.800" r="1.344"/><circle cx="377.280" cy="428.400" r="1.344"/><circle cx="390.720" cy="428.400" r="1.344"/><circle cx="473.280" cy="411.600" r="1.344"/><circle cx="473.280" cy="417.200" r="1.344"/><circle cx="486.720" cy="411.600" r="1.344"/><circle cx="569.280" cy="422.800" r="1.344"/><circle cx="569.280" cy="428.400" r="1.344"/><circle cx="582.720" cy="417.200" r="1.344"/><circle cx="582.720" cy="422.800" r="1.344"/><circle cx="593.280" cy="411.600" r="1.344"/><circle cx="593.280" cy="417.200" r="1.344"/><circle cx="593.280" cy="422.800" r="1.344"/><circle cx="582.720" cy="428.400" r="1.344"/><circle cx="606.720" cy="411.600" r="1.344"/><circle cx="606.720" cy="417.200" r="1.344"/><circle cx="377.280" cy="435.600" r="1.344"/><circle cx="390.720" cy="435.600" r="1.344"/><circle cx="390.720" cy="441.200" r="1.344"/><circle cx="390.720" cy="446.800" r="1.344"/><circle cx="401.280" cy="435.600" r="1.344"/><circle cx="401.280" cy="441.200" r="1.344"/><circle cx="401.280" cy="446.800" r="1.344"/><circle cx="390.720" cy="452.400" r="1.344"/><circle cx="401.280" cy="452.400" r="1.344"/><circle cx="414.720" cy="441.200" r="1.344"/><circle cx="414.720" cy="446.800" r="1.344"/><circle cx="425.280" cy="446.800" r="1.344"/><circle cx="414.720" cy="452.400" r="1.344"/><circle cx="425.280" cy="452.400" r="1.344"/><circle cx="521.280" cy="452.400" r="1.344"/><circle cx="534.720" cy="446.800" r="1.344"/><circle cx="545.280" cy="441.200" r="1.344"/><circle cx="545.280" cy="446.800" r="1.344"/><circle cx="534.720" cy="452.400" r="1.344"/><circle cx="545.280" cy="452.400" r="1.344"/><circle cx="558.720" cy="435.600" r="1.344"/><circle cx="558.720" cy="441.200" r="1.344"/><circle cx="569.280" cy="435.600" r="1.344"/><circle cx="390.720" cy="470.800" r="1.344"/><circle cx="401.280" cy="459.600" r="1.344"/><circle cx="401.280" cy="465.200" r="1.344"/><circle cx="401.280" cy="470.800" r="1.344"/><circle cx="390.720" cy="476.400" r="1.344"/><circle cx="401.280" cy="476.400" r="1.344"/><circle cx="414.720" cy="459.600" r="1.344"/><circle cx="414.720" cy="465.200" r="1.344"/><circle cx="414.720" cy="470.800" r="1.344"/><circle cx="425.280" cy="459.600" r="1.344"/><circle cx="425.280" cy="465.200" r="1.344"/><circle cx="414.720" cy="476.400" r="1.344"/><circle cx="438.720" cy="459.600" r="1.344"/><circle cx="438.720" cy="465.200" r="1.344"/><circle cx="438.720" cy="470.800" r="1.344"/><circle cx="449.280" cy="465.200" r="1.344"/><circle cx="449.280" cy="470.800" r="1.344"/><circle cx="449.280" cy="476.400" r="1.344"/><circle cx="462.720" cy="476.400" r="1.344"/><circle cx="497.280" cy="470.800" r="1.344"/><circle cx="497.280" cy="476.400" r="1.344"/><circle cx="510.720" cy="465.200" r="1.344"/><circle cx="510.720" cy="470.800" r="1.344"/><circle cx="521.280" cy="459.600" r="1.344"/><circle cx="521.280" cy="465.200" r="1.344"/><circle cx="521.280" cy="470.800" r="1.344"/><circle cx="510.720" cy="476.400" r="1.344"/><circle cx="534.720" cy="459.600" r="1.344"/><circle cx="377.280" cy="489.200" r="1.344"/><circle cx="377.280" cy="494.800" r="1.344"/><circle cx="377.280" cy="500.400" r="1.344"/><circle cx="390.720" cy="483.600" r="1.344"/><circle cx="390.720" cy="489.200" r="1.344"/><circle cx="390.720" cy="494.800" r="1.344"/><circle cx="401.280" cy="483.600" r="1.344"/><circle cx="401.280" cy="489.200" r="1.344"/><circle cx="401.280" cy="494.800" r="1.344"/><circle cx="390.720" cy="500.400" r="1.344"/><circle cx="401.280" cy="500.400" r="1.344"/><circle cx="414.720" cy="483.600" r="1.344"/><circle cx="414.720" cy="489.200" r="1.344"/><circle cx="414.720" cy="494.800" r="1.344"/><circle cx="425.280" cy="483.600" r="1.344"/><circle cx="425.280" cy="489.200" r="1.344"/><circle cx="425.280" cy="494.800" r="1.344"/><circle cx="414.720" cy="500.400" r="1.344"/><circle cx="425.280" cy="500.400" r="1.344"/><circle cx="449.280" cy="483.600" r="1.344"/><circle cx="462.720" cy="483.600" r="1.344"/><circle cx="462.720" cy="489.200" r="1.344"/><circle cx="462.720" cy="494.800" r="1.344"/><circle cx="473.280" cy="489.200" r="1.344"/><circle cx="473.280" cy="494.800" r="1.344"/><circle cx="462.720" cy="500.400" r="1.344"/><circle cx="473.280" cy="500.400" r="1.344"/><circle cx="486.720" cy="489.200" r="1.344"/><circle cx="486.720" cy="494.800" r="1.344"/><circle cx="497.280" cy="483.600" r="1.344"/><circle cx="497.280" cy="489.200" r="1.344"/><circle cx="497.280" cy="494.800" r="1.344"/><circle cx="486.720" cy="500.400" r="1.344"/><circle cx="497.280" cy="500.400" r="1.344"/><circle cx="510.720" cy="483.600" r="1.344"/><circle cx="390.720" cy="507.600" r="1.344"/><circle cx="401.280" cy="507.600" r="1.344"/><circle cx="414.720" cy="507.600" r="1.344"/><circle cx="462.720" cy="507.600" r="1.344"/><circle cx="462.720" cy="513.200" r="1.344"/><circle cx="473.280" cy="507.600" r="1.344"/><circle cx="473.280" cy="513.200" r="1.344"/><circle cx="473.280" cy="518.800" r="1.344"/><circle cx="462.720" cy="524.400" r="1.344"/><circle cx="473.280" cy="524.400" r="1.344"/><circle cx="486.720" cy="507.600" r="1.344"/><circle cx="486.720" cy="513.200" r="1.344"/><circle cx="486.720" cy="518.800" r="1.344"/><circle cx="486.720" cy="524.400" r="1.344"/><circle cx="462.720" cy="537.200" r="1.344"/><circle cx="462.720" cy="542.800" r="1.344"/><circle cx="473.280" cy="531.600" r="1.344"/><circle cx="473.280" cy="537.200" r="1.344"/><circle cx="473.280" cy="542.800" r="1.344"/><circle cx="462.720" cy="548.400" r="1.344"/><circle cx="473.280" cy="548.400" r="1.344"/><circle cx="486.720" cy="531.600" r="1.344"/><circle cx="486.720" cy="537.200" r="1.344"/><circle cx="486.720" cy="542.800" r="1.344"/><circle cx="486.720" cy="548.400" r="1.344"/><circle cx="462.720" cy="555.600" r="1.344"/><circle cx="462.720" cy="561.200" r="1.344"/><circle cx="462.720" cy="566.800" r="1.344"/><circle cx="473.280" cy="555.600" r="1.344"/><circle cx="473.280" cy="561.200" r="1.344"/><circle cx="473.280" cy="566.800" r="1.344"/><circle cx="462.720" cy="572.400" r="1.344"/><circle cx="473.280" cy="572.400" r="1.344"/><circle cx="486.720" cy="555.600" r="1.344"/><circle cx="486.720" cy="561.200" r="1.344"/><circle cx="486.720" cy="566.800" r="1.344"/><circle cx="497.280" cy="561.200" r="1.344"/><circle cx="497.280" cy="566.800" r="1.344"/><circle cx="486.720" cy="572.400" r="1.344"/><circle cx="497.280" cy="572.400" r="1.344"/><circle cx="449.280" cy="579.600" r="1.344"/><circle cx="449.280" cy="585.200" r="1.344"/><circle cx="449.280" cy="590.800" r="1.344"/><circle cx="462.720" cy="579.600" r="1.344"/><circle cx="462.720" cy="585.200" r="1.344"/><circle cx="462.720" cy="590.800" r="1.344"/><circle cx="473.280" cy="579.600" r="1.344"/><circle cx="473.280" cy="585.200" r="1.344"/><circle cx="473.280" cy="590.800" r="1.344"/><circle cx="462.720" cy="596.400" r="1.344"/><circle cx="473.280" cy="596.400" r="1.344"/><circle cx="486.720" cy="579.600" r="1.344"/><circle cx="486.720" cy="585.200" r="1.344"/><circle cx="486.720" cy="590.800" r="1.344"/><circle cx="497.280" cy="579.600" r="1.344"/><circle cx="497.280" cy="585.200" r="1.344"/><circle cx="497.280" cy="590.800" r="1.344"/><circle cx="486.720" cy="596.400" r="1.344"/><circle cx="497.280" cy="596.400" r="1.344"/></svg>